<svg width="24" height="24" viewBox="0 0 24 24" fill="none" xmlns="http://www.w3.org/2000/svg">
<mask id="mask0_6_95" style="mask-type:alpha" maskUnits="userSpaceOnUse" x="0" y="0" width="24" height="24">
<rect width="24" height="24" fill="#D9D9D9"/>
</mask>
<g mask="url(#mask0_6_95)">
<path d="M18.6923 18.5H8.30773C7.8026 18.5 7.37503 18.325 7.02503 17.975C6.67503 17.625 6.50003 17.1974 6.50003 16.6923V3.30772C6.50003 2.80259 6.67503 2.37502 7.02503 2.02502C7.37503 1.67502 7.8026 1.50002 8.30773 1.50002H15.25L20.5 6.74997V16.6923C20.5 17.1974 20.325 17.625 19.975 17.975C19.625 18.325 19.1974 18.5 18.6923 18.5ZM14.5 7.49997V3H8.30773C8.2308 3 8.16027 3.03205 8.09616 3.09615C8.03206 3.16027 8.00001 3.23079 8.00001 3.30772V16.6923C8.00001 16.7692 8.03206 16.8397 8.09616 16.9038C8.16027 16.9679 8.2308 17 8.30773 17H18.6923C18.7692 17 18.8397 16.9679 18.9039 16.9038C18.968 16.8397 19 16.7692 19 16.6923V7.49997H14.5ZM4.30773 22.5C3.8026 22.5 3.37503 22.325 3.02503 21.975C2.67503 21.625 2.50003 21.1974 2.50003 20.6923V7.50002H4.00001V20.6923C4.00001 20.7692 4.03206 20.8397 4.09616 20.9039C4.16027 20.968 4.2308 21 4.30773 21H14.5V22.5L4.30773 22.5Z" fill="#676C80"/>
</g>
</svg>
