<svg width="640" height="622" viewBox="0 0 640 622" fill="none" xmlns="http://www.w3.org/2000/svg">
<g filter="url(#filter0_d_6_78)">
<rect x="80" y="65" width="480" height="462" rx="30" fill="white"/>
<path d="M436.308 135.713H436.134C435.156 135.713 434.218 136.099 433.526 136.787C432.835 137.474 432.446 138.407 432.446 139.379C432.446 140.351 432.835 141.284 433.526 141.971C434.218 142.659 435.156 143.045 436.134 143.045H436.308C437.286 143.045 438.224 142.659 438.916 141.971C439.608 141.284 439.996 140.351 439.996 139.379C439.996 138.407 439.608 137.474 438.916 136.787C438.224 136.099 437.286 135.713 436.308 135.713ZM433.076 165.975H439.366V147.622H433.076V165.975ZM369.877 165.975H388.34V159.723H369.877V165.975ZM423.316 158.688V135.713H417.002V138.687C414.658 136.99 411.879 135.989 408.987 135.8C406.094 135.611 403.207 136.241 400.66 137.617C398.113 138.994 396.011 141.06 394.598 143.576C393.186 146.092 392.519 148.955 392.678 151.832C392.836 154.709 393.812 157.483 395.492 159.831C397.172 162.179 399.488 164.005 402.17 165.098C404.853 166.19 407.792 166.504 410.647 166.002C413.501 165.501 416.154 164.205 418.298 162.265C419.034 163.403 420.046 164.34 421.241 164.988C422.436 165.636 423.776 165.976 425.137 165.975H427.953V160.305H424.943C424.729 160.305 424.518 160.263 424.32 160.182C424.123 160.101 423.944 159.982 423.792 159.832C423.641 159.681 423.521 159.503 423.44 159.307C423.358 159.111 423.316 158.9 423.316 158.688ZM407.991 159.958C406.209 159.958 404.466 159.433 402.984 158.449C401.503 157.464 400.348 156.065 399.665 154.429C398.983 152.792 398.805 150.991 399.153 149.253C399.5 147.516 400.359 145.92 401.619 144.667C402.879 143.414 404.485 142.561 406.233 142.216C407.98 141.87 409.792 142.047 411.439 142.725C413.085 143.403 414.493 144.551 415.483 146.024C416.473 147.497 417.002 149.229 417.002 151.001C416.999 153.375 416.049 155.652 414.359 157.331C412.67 159.011 410.38 159.955 407.991 159.958V159.958ZM243.87 135.713C235.61 135.713 228.89 142.571 228.89 151.001C228.89 159.43 235.61 166.288 243.87 166.288C247.725 166.288 251.615 165.153 254.277 162.707L250.383 158.161C248.535 159.677 246.719 160.297 243.87 160.297C239.265 160.297 236.323 157.657 235.312 153.996L258.56 153.997C258.753 153.01 258.85 152.006 258.85 151.001C258.85 142.571 252.13 135.713 243.87 135.713ZM235.261 148.335C235.721 146.42 236.825 144.719 238.391 143.513C239.957 142.308 241.89 141.669 243.87 141.704C245.859 141.64 247.808 142.268 249.382 143.478C250.956 144.688 252.056 146.406 252.494 148.335H235.261ZM222.499 157.229H222.497C221.228 158.54 219.588 159.437 217.795 159.802C216.002 160.166 214.139 159.98 212.454 159.269C210.769 158.558 209.341 157.356 208.359 155.82C207.377 154.285 206.888 152.489 206.955 150.671C207.019 148.923 207.596 147.233 208.613 145.806C209.63 144.38 211.044 143.279 212.681 142.64C214.318 142 216.107 141.85 217.83 142.207C219.552 142.563 221.131 143.412 222.375 144.649H222.376L226.841 140.211C224.685 138.068 221.936 136.611 218.944 136.027C215.952 135.443 212.853 135.757 210.042 136.931C207.231 138.104 204.835 140.083 203.16 142.615C201.484 145.147 200.605 148.117 200.634 151.148C200.664 154.178 201.6 157.131 203.325 159.631C205.049 162.13 207.483 164.063 210.316 165.182C213.15 166.301 216.254 166.556 219.234 165.915C222.214 165.273 224.934 163.764 227.048 161.58V161.58L222.499 157.229ZM371.204 135.713H367.149C364.882 135.734 362.682 136.477 360.873 137.835V135.721H354.559V165.975H360.873L360.873 147.822C360.877 146.108 361.564 144.466 362.784 143.255C364.004 142.045 365.658 141.365 367.382 141.365H371.204L371.204 135.713ZM304.098 156.234V147.789H310.759V142.128H304.098V135.713H297.784V155.462C297.784 156.843 298.057 158.21 298.589 159.485C299.12 160.761 299.899 161.92 300.881 162.896C301.864 163.872 303.03 164.647 304.313 165.175C305.596 165.703 306.971 165.975 308.36 165.975H314.149V160.277H308.166C307.632 160.277 307.103 160.173 306.609 159.97C306.116 159.766 305.667 159.468 305.289 159.093C304.912 158.717 304.612 158.272 304.408 157.781C304.203 157.291 304.098 156.765 304.098 156.234ZM277.531 135.723C274.934 135.738 272.415 136.601 270.36 138.179V135.713H264.044L264.046 165.975H270.36V148.522C270.357 147.585 270.541 146.656 270.9 145.789C271.259 144.922 271.787 144.133 272.453 143.469C273.119 142.805 273.911 142.279 274.782 141.919C275.653 141.56 276.587 141.375 277.531 141.375C278.474 141.375 279.408 141.56 280.279 141.919C281.151 142.279 281.942 142.805 282.608 143.469C283.274 144.133 283.802 144.922 284.161 145.789C284.52 146.656 284.704 147.585 284.701 148.522V165.975H291.016L291.015 149.084C290.999 145.538 289.572 142.142 287.046 139.638C284.519 137.135 281.098 135.728 277.531 135.723ZM332.862 135.713C324.602 135.713 317.882 142.571 317.882 151.001C317.882 159.43 324.602 166.288 332.862 166.288C336.717 166.288 340.607 165.153 343.268 162.707L339.375 158.161C337.527 159.677 335.711 160.297 332.862 160.297C328.256 160.297 325.315 157.657 324.304 153.996L347.551 153.997C347.745 153.01 347.842 152.006 347.842 151.001C347.842 142.571 341.122 135.713 332.862 135.713ZM324.252 148.335C324.713 146.42 325.817 144.719 327.383 143.513C328.949 142.308 330.881 141.669 332.862 141.704C334.851 141.64 336.8 142.268 338.374 143.478C339.948 144.688 341.048 146.406 341.486 148.335H324.252Z" fill="#4A24AC"/>
<path d="M273.908 251.22C272.705 251.22 271.554 251.051 270.454 250.714C269.354 250.362 268.481 249.915 267.836 249.372L268.826 247.15C269.442 247.634 270.205 248.037 271.114 248.36C272.023 248.683 272.955 248.844 273.908 248.844C274.715 248.844 275.367 248.756 275.866 248.58C276.365 248.404 276.731 248.169 276.966 247.876C277.201 247.568 277.318 247.223 277.318 246.842C277.318 246.373 277.149 245.999 276.812 245.72C276.475 245.427 276.035 245.199 275.492 245.038C274.964 244.862 274.37 244.701 273.71 244.554C273.065 244.407 272.412 244.239 271.752 244.048C271.107 243.843 270.513 243.586 269.97 243.278C269.442 242.955 269.009 242.53 268.672 242.002C268.335 241.474 268.166 240.799 268.166 239.978C268.166 239.142 268.386 238.379 268.826 237.69C269.281 236.986 269.963 236.429 270.872 236.018C271.796 235.593 272.962 235.38 274.37 235.38C275.294 235.38 276.211 235.497 277.12 235.732C278.029 235.967 278.821 236.304 279.496 236.744L278.594 238.966C277.905 238.555 277.193 238.255 276.46 238.064C275.727 237.859 275.023 237.756 274.348 237.756C273.556 237.756 272.911 237.851 272.412 238.042C271.928 238.233 271.569 238.482 271.334 238.79C271.114 239.098 271.004 239.45 271.004 239.846C271.004 240.315 271.165 240.697 271.488 240.99C271.825 241.269 272.258 241.489 272.786 241.65C273.329 241.811 273.93 241.973 274.59 242.134C275.25 242.281 275.903 242.449 276.548 242.64C277.208 242.831 277.802 243.08 278.33 243.388C278.873 243.696 279.305 244.114 279.628 244.642C279.965 245.17 280.134 245.837 280.134 246.644C280.134 247.465 279.907 248.228 279.452 248.932C279.012 249.621 278.33 250.179 277.406 250.604C276.482 251.015 275.316 251.22 273.908 251.22ZM288.932 239.12C289.871 239.12 290.707 239.303 291.44 239.67C292.188 240.037 292.775 240.601 293.2 241.364C293.625 242.112 293.838 243.08 293.838 244.268V251H291.088V244.62C291.088 243.579 290.839 242.801 290.34 242.288C289.856 241.775 289.174 241.518 288.294 241.518C287.649 241.518 287.077 241.65 286.578 241.914C286.079 242.178 285.691 242.574 285.412 243.102C285.148 243.615 285.016 244.268 285.016 245.06V251H282.266V234.676H285.016V242.42L284.422 241.452C284.833 240.704 285.427 240.132 286.204 239.736C286.996 239.325 287.905 239.12 288.932 239.12ZM302.188 251.154C300.985 251.154 299.915 250.897 298.976 250.384C298.037 249.856 297.297 249.137 296.754 248.228C296.211 247.319 295.94 246.285 295.94 245.126C295.94 243.953 296.211 242.919 296.754 242.024C297.297 241.115 298.037 240.403 298.976 239.89C299.915 239.377 300.985 239.12 302.188 239.12C303.405 239.12 304.483 239.377 305.422 239.89C306.375 240.403 307.116 241.107 307.644 242.002C308.187 242.897 308.458 243.938 308.458 245.126C308.458 246.285 308.187 247.319 307.644 248.228C307.116 249.137 306.375 249.856 305.422 250.384C304.483 250.897 303.405 251.154 302.188 251.154ZM302.188 248.8C302.863 248.8 303.464 248.653 303.992 248.36C304.52 248.067 304.931 247.641 305.224 247.084C305.532 246.527 305.686 245.874 305.686 245.126C305.686 244.363 305.532 243.711 305.224 243.168C304.931 242.611 304.52 242.185 303.992 241.892C303.464 241.599 302.87 241.452 302.21 241.452C301.535 241.452 300.934 241.599 300.406 241.892C299.893 242.185 299.482 242.611 299.174 243.168C298.866 243.711 298.712 244.363 298.712 245.126C298.712 245.874 298.866 246.527 299.174 247.084C299.482 247.641 299.893 248.067 300.406 248.36C300.934 248.653 301.528 248.8 302.188 248.8ZM310.648 251V239.252H313.266V242.486L312.958 241.54C313.31 240.748 313.86 240.147 314.608 239.736C315.37 239.325 316.316 239.12 317.446 239.12V241.738C317.328 241.709 317.218 241.694 317.116 241.694C317.013 241.679 316.91 241.672 316.808 241.672C315.766 241.672 314.938 241.98 314.322 242.596C313.706 243.197 313.398 244.099 313.398 245.302V251H310.648ZM324.19 251.154C322.899 251.154 321.902 250.824 321.198 250.164C320.494 249.489 320.142 248.499 320.142 247.194V236.656H322.892V247.128C322.892 247.685 323.031 248.118 323.31 248.426C323.603 248.734 324.007 248.888 324.52 248.888C325.136 248.888 325.649 248.727 326.06 248.404L326.83 250.362C326.507 250.626 326.111 250.824 325.642 250.956C325.173 251.088 324.689 251.154 324.19 251.154ZM318.206 241.54V239.34H326.038V241.54H318.206ZM334.292 251V234.676H337.042V251H334.292ZM340.212 251V239.252H342.962V251H340.212ZM341.598 237.316C341.084 237.316 340.659 237.155 340.322 236.832C339.999 236.509 339.838 236.121 339.838 235.666C339.838 235.197 339.999 234.808 340.322 234.5C340.659 234.177 341.084 234.016 341.598 234.016C342.111 234.016 342.529 234.17 342.852 234.478C343.189 234.771 343.358 235.145 343.358 235.6C343.358 236.084 343.196 236.495 342.874 236.832C342.551 237.155 342.126 237.316 341.598 237.316ZM352.797 239.12C353.736 239.12 354.572 239.303 355.305 239.67C356.053 240.037 356.64 240.601 357.065 241.364C357.491 242.112 357.703 243.08 357.703 244.268V251H354.953V244.62C354.953 243.579 354.704 242.801 354.205 242.288C353.721 241.775 353.039 241.518 352.159 241.518C351.514 241.518 350.942 241.65 350.443 241.914C349.945 242.178 349.556 242.574 349.277 243.102C349.013 243.615 348.881 244.268 348.881 245.06V251H346.131V239.252H348.749V242.42L348.287 241.452C348.698 240.704 349.292 240.132 350.069 239.736C350.861 239.325 351.771 239.12 352.797 239.12ZM362.996 248.382L363.062 244.928L369.2 239.252H372.5L367.286 244.488L365.834 245.698L362.996 248.382ZM360.752 251V234.676H363.502V251H360.752ZM369.618 251L365.328 245.698L367.066 243.498L372.962 251H369.618Z" fill="#363C56"/>
<rect opacity="0.8" x="120" y="336" width="400" height="1" fill="#4A24AC"/>
<path d="M125.236 313.51C125.843 313.51 126.375 313.627 126.832 313.86C127.299 314.093 127.663 314.448 127.924 314.924C128.185 315.4 128.316 316.002 128.316 316.73V321H126.972V316.884C126.972 316.165 126.795 315.624 126.44 315.26C126.095 314.896 125.605 314.714 124.97 314.714C124.494 314.714 124.079 314.807 123.724 314.994C123.369 315.181 123.094 315.456 122.898 315.82C122.711 316.184 122.618 316.637 122.618 317.178V321H121.274V310.612H122.618V315.582L122.352 315.05C122.595 314.565 122.968 314.187 123.472 313.916C123.976 313.645 124.564 313.51 125.236 313.51ZM133.351 321.084C132.605 321.084 132.026 320.883 131.615 320.482C131.205 320.081 130.999 319.507 130.999 318.76V311.956H132.343V318.704C132.343 319.105 132.441 319.413 132.637 319.628C132.843 319.843 133.132 319.95 133.505 319.95C133.925 319.95 134.275 319.833 134.555 319.6L134.975 320.566C134.77 320.743 134.523 320.874 134.233 320.958C133.953 321.042 133.659 321.084 133.351 321.084ZM129.739 314.686V313.58H134.471V314.686H129.739ZM138.97 321.084C138.224 321.084 137.645 320.883 137.234 320.482C136.824 320.081 136.618 319.507 136.618 318.76V311.956H137.962V318.704C137.962 319.105 138.06 319.413 138.256 319.628C138.462 319.843 138.751 319.95 139.124 319.95C139.544 319.95 139.894 319.833 140.174 319.6L140.594 320.566C140.389 320.743 140.142 320.874 139.852 320.958C139.572 321.042 139.278 321.084 138.97 321.084ZM135.358 314.686V313.58H140.09V314.686H135.358ZM146.153 321.084C145.537 321.084 144.973 320.944 144.459 320.664C143.955 320.375 143.549 319.95 143.241 319.39C142.943 318.83 142.793 318.13 142.793 317.29C142.793 316.45 142.938 315.75 143.227 315.19C143.526 314.63 143.927 314.21 144.431 313.93C144.945 313.65 145.519 313.51 146.153 313.51C146.881 313.51 147.525 313.669 148.085 313.986C148.645 314.303 149.089 314.747 149.415 315.316C149.742 315.876 149.905 316.534 149.905 317.29C149.905 318.046 149.742 318.709 149.415 319.278C149.089 319.847 148.645 320.291 148.085 320.608C147.525 320.925 146.881 321.084 146.153 321.084ZM142.219 323.716V313.58H143.507V315.582L143.423 317.304L143.563 319.026V323.716H142.219ZM146.041 319.908C146.517 319.908 146.942 319.801 147.315 319.586C147.698 319.371 147.997 319.068 148.211 318.676C148.435 318.275 148.547 317.813 148.547 317.29C148.547 316.758 148.435 316.301 148.211 315.918C147.997 315.526 147.698 315.223 147.315 315.008C146.942 314.793 146.517 314.686 146.041 314.686C145.575 314.686 145.15 314.793 144.767 315.008C144.394 315.223 144.095 315.526 143.871 315.918C143.657 316.301 143.549 316.758 143.549 317.29C143.549 317.813 143.657 318.275 143.871 318.676C144.095 319.068 144.394 319.371 144.767 319.586C145.15 319.801 145.575 319.908 146.041 319.908ZM153.89 321.084C153.274 321.084 152.686 321 152.126 320.832C151.576 320.664 151.142 320.459 150.824 320.216L151.384 319.152C151.702 319.367 152.094 319.549 152.56 319.698C153.027 319.847 153.503 319.922 153.988 319.922C154.614 319.922 155.062 319.833 155.332 319.656C155.612 319.479 155.752 319.231 155.752 318.914C155.752 318.681 155.668 318.499 155.5 318.368C155.332 318.237 155.108 318.139 154.828 318.074C154.558 318.009 154.254 317.953 153.918 317.906C153.582 317.85 153.246 317.785 152.91 317.71C152.574 317.626 152.266 317.514 151.986 317.374C151.706 317.225 151.482 317.024 151.314 316.772C151.146 316.511 151.062 316.165 151.062 315.736C151.062 315.288 151.188 314.896 151.44 314.56C151.692 314.224 152.047 313.967 152.504 313.79C152.971 313.603 153.522 313.51 154.156 313.51C154.642 313.51 155.132 313.571 155.626 313.692C156.13 313.804 156.541 313.967 156.858 314.182L156.284 315.246C155.948 315.022 155.598 314.868 155.234 314.784C154.87 314.7 154.506 314.658 154.142 314.658C153.554 314.658 153.116 314.756 152.826 314.952C152.537 315.139 152.392 315.381 152.392 315.68C152.392 315.932 152.476 316.128 152.644 316.268C152.822 316.399 153.046 316.501 153.316 316.576C153.596 316.651 153.904 316.716 154.24 316.772C154.576 316.819 154.912 316.884 155.248 316.968C155.584 317.043 155.888 317.15 156.158 317.29C156.438 317.43 156.662 317.626 156.83 317.878C157.008 318.13 157.096 318.466 157.096 318.886C157.096 319.334 156.966 319.721 156.704 320.048C156.443 320.375 156.074 320.631 155.598 320.818C155.122 320.995 154.553 321.084 153.89 321.084ZM159.098 315.428C158.837 315.428 158.613 315.339 158.426 315.162C158.239 314.975 158.146 314.742 158.146 314.462C158.146 314.182 158.239 313.953 158.426 313.776C158.613 313.599 158.837 313.51 159.098 313.51C159.35 313.51 159.565 313.599 159.742 313.776C159.929 313.953 160.022 314.182 160.022 314.462C160.022 314.742 159.929 314.975 159.742 315.162C159.565 315.339 159.35 315.428 159.098 315.428ZM159.098 321.084C158.837 321.084 158.613 320.995 158.426 320.818C158.239 320.631 158.146 320.398 158.146 320.118C158.146 319.838 158.239 319.609 158.426 319.432C158.613 319.255 158.837 319.166 159.098 319.166C159.35 319.166 159.565 319.255 159.742 319.432C159.929 319.609 160.022 319.838 160.022 320.118C160.022 320.398 159.929 320.631 159.742 320.818C159.565 320.995 159.35 321.084 159.098 321.084ZM160.952 322.4L165.572 309.212H166.79L162.17 322.4H160.952ZM164.93 322.4L169.55 309.212H170.768L166.148 322.4H164.93ZM173.809 321.084C173.053 321.084 172.376 320.921 171.779 320.594C171.191 320.267 170.729 319.819 170.393 319.25C170.057 318.681 169.889 318.027 169.889 317.29C169.889 316.553 170.057 315.899 170.393 315.33C170.729 314.761 171.191 314.317 171.779 314C172.376 313.673 173.053 313.51 173.809 313.51C174.481 313.51 175.078 313.645 175.601 313.916C176.133 314.177 176.543 314.569 176.833 315.092L175.811 315.75C175.568 315.386 175.269 315.12 174.915 314.952C174.569 314.775 174.196 314.686 173.795 314.686C173.309 314.686 172.875 314.793 172.493 315.008C172.11 315.223 171.807 315.526 171.583 315.918C171.359 316.301 171.247 316.758 171.247 317.29C171.247 317.822 171.359 318.284 171.583 318.676C171.807 319.068 172.11 319.371 172.493 319.586C172.875 319.801 173.309 319.908 173.795 319.908C174.196 319.908 174.569 319.824 174.915 319.656C175.269 319.479 175.568 319.208 175.811 318.844L176.833 319.488C176.543 320.001 176.133 320.398 175.601 320.678C175.078 320.949 174.481 321.084 173.809 321.084ZM181.767 321.084C180.974 321.084 180.274 320.921 179.667 320.594C179.07 320.267 178.603 319.819 178.267 319.25C177.941 318.681 177.777 318.027 177.777 317.29C177.777 316.553 177.936 315.899 178.253 315.33C178.58 314.761 179.023 314.317 179.583 314C180.153 313.673 180.792 313.51 181.501 313.51C182.22 313.51 182.855 313.669 183.405 313.986C183.956 314.303 184.385 314.751 184.693 315.33C185.011 315.899 185.169 316.567 185.169 317.332C185.169 317.388 185.165 317.453 185.155 317.528C185.155 317.603 185.151 317.673 185.141 317.738H178.827V316.772H184.441L183.895 317.108C183.905 316.632 183.807 316.207 183.601 315.834C183.396 315.461 183.111 315.171 182.747 314.966C182.393 314.751 181.977 314.644 181.501 314.644C181.035 314.644 180.619 314.751 180.255 314.966C179.891 315.171 179.607 315.465 179.401 315.848C179.196 316.221 179.093 316.651 179.093 317.136V317.36C179.093 317.855 179.205 318.298 179.429 318.69C179.663 319.073 179.985 319.371 180.395 319.586C180.806 319.801 181.277 319.908 181.809 319.908C182.248 319.908 182.645 319.833 182.999 319.684C183.363 319.535 183.681 319.311 183.951 319.012L184.693 319.88C184.357 320.272 183.937 320.571 183.433 320.776C182.939 320.981 182.383 321.084 181.767 321.084ZM190.998 313.51C191.604 313.51 192.136 313.627 192.594 313.86C193.06 314.093 193.424 314.448 193.686 314.924C193.947 315.4 194.078 316.002 194.078 316.73V321H192.734V316.884C192.734 316.165 192.556 315.624 192.202 315.26C191.856 314.896 191.366 314.714 190.732 314.714C190.256 314.714 189.84 314.807 189.486 314.994C189.131 315.181 188.856 315.456 188.66 315.82C188.473 316.184 188.38 316.637 188.38 317.178V321H187.036V313.58H188.324V315.582L188.114 315.05C188.356 314.565 188.73 314.187 189.234 313.916C189.738 313.645 190.326 313.51 190.998 313.51ZM199.113 321.084C198.366 321.084 197.788 320.883 197.377 320.482C196.966 320.081 196.761 319.507 196.761 318.76V311.956H198.105V318.704C198.105 319.105 198.203 319.413 198.399 319.628C198.604 319.843 198.894 319.95 199.267 319.95C199.687 319.95 200.037 319.833 200.317 319.6L200.737 320.566C200.532 320.743 200.284 320.874 199.995 320.958C199.715 321.042 199.421 321.084 199.113 321.084ZM195.501 314.686V313.58H200.233V314.686H195.501ZM205.42 321.084C204.626 321.084 203.926 320.921 203.32 320.594C202.722 320.267 202.256 319.819 201.92 319.25C201.593 318.681 201.43 318.027 201.43 317.29C201.43 316.553 201.588 315.899 201.906 315.33C202.232 314.761 202.676 314.317 203.236 314C203.805 313.673 204.444 313.51 205.154 313.51C205.872 313.51 206.507 313.669 207.058 313.986C207.608 314.303 208.038 314.751 208.346 315.33C208.663 315.899 208.822 316.567 208.822 317.332C208.822 317.388 208.817 317.453 208.808 317.528C208.808 317.603 208.803 317.673 208.794 317.738H202.48V316.772H208.094L207.548 317.108C207.557 316.632 207.459 316.207 207.254 315.834C207.048 315.461 206.764 315.171 206.4 314.966C206.045 314.751 205.63 314.644 205.154 314.644C204.687 314.644 204.272 314.751 203.908 314.966C203.544 315.171 203.259 315.465 203.054 315.848C202.848 316.221 202.746 316.651 202.746 317.136V317.36C202.746 317.855 202.858 318.298 203.082 318.69C203.315 319.073 203.637 319.371 204.048 319.586C204.458 319.801 204.93 319.908 205.462 319.908C205.9 319.908 206.297 319.833 206.652 319.684C207.016 319.535 207.333 319.311 207.604 319.012L208.346 319.88C208.01 320.272 207.59 320.571 207.086 320.776C206.591 320.981 206.036 321.084 205.42 321.084ZM210.688 321V313.58H211.976V315.596L211.85 315.092C212.055 314.579 212.401 314.187 212.886 313.916C213.371 313.645 213.969 313.51 214.678 313.51V314.812C214.622 314.803 214.566 314.798 214.51 314.798C214.463 314.798 214.417 314.798 214.37 314.798C213.651 314.798 213.082 315.013 212.662 315.442C212.242 315.871 212.032 316.492 212.032 317.304V321H210.688ZM216.616 321.084C216.354 321.084 216.13 320.995 215.944 320.818C215.757 320.631 215.664 320.398 215.664 320.118C215.664 319.838 215.757 319.609 215.944 319.432C216.13 319.255 216.354 319.166 216.616 319.166C216.868 319.166 217.082 319.255 217.26 319.432C217.446 319.609 217.54 319.838 217.54 320.118C217.54 320.398 217.446 320.631 217.26 320.818C217.082 320.995 216.868 321.084 216.616 321.084ZM224.208 321V319.432L224.138 319.138V316.464C224.138 315.895 223.97 315.456 223.634 315.148C223.307 314.831 222.813 314.672 222.15 314.672C221.711 314.672 221.282 314.747 220.862 314.896C220.442 315.036 220.087 315.227 219.798 315.47L219.238 314.462C219.621 314.154 220.078 313.921 220.61 313.762C221.151 313.594 221.716 313.51 222.304 313.51C223.321 313.51 224.105 313.757 224.656 314.252C225.207 314.747 225.482 315.503 225.482 316.52V321H224.208ZM221.772 321.084C221.221 321.084 220.736 320.991 220.316 320.804C219.905 320.617 219.588 320.361 219.364 320.034C219.14 319.698 219.028 319.32 219.028 318.9C219.028 318.499 219.121 318.135 219.308 317.808C219.504 317.481 219.817 317.22 220.246 317.024C220.685 316.828 221.273 316.73 222.01 316.73H224.362V317.696H222.066C221.394 317.696 220.941 317.808 220.708 318.032C220.475 318.256 220.358 318.527 220.358 318.844C220.358 319.208 220.503 319.502 220.792 319.726C221.081 319.941 221.483 320.048 221.996 320.048C222.5 320.048 222.939 319.936 223.312 319.712C223.695 319.488 223.97 319.161 224.138 318.732L224.404 319.656C224.227 320.095 223.914 320.445 223.466 320.706C223.018 320.958 222.453 321.084 221.772 321.084ZM227.969 321V313.58H229.313V321H227.969ZM228.641 312.152C228.38 312.152 228.161 312.068 227.983 311.9C227.815 311.732 227.731 311.527 227.731 311.284C227.731 311.032 227.815 310.822 227.983 310.654C228.161 310.486 228.38 310.402 228.641 310.402C228.903 310.402 229.117 310.486 229.285 310.654C229.463 310.813 229.551 311.013 229.551 311.256C229.551 311.508 229.467 311.723 229.299 311.9C229.131 312.068 228.912 312.152 228.641 312.152ZM230.213 322.4L234.833 309.212H236.051L231.431 322.4H230.213ZM239.792 321.084C239.176 321.084 238.611 320.944 238.098 320.664C237.594 320.375 237.188 319.95 236.88 319.39C236.581 318.83 236.432 318.13 236.432 317.29C236.432 316.45 236.577 315.75 236.866 315.19C237.165 314.63 237.566 314.21 238.07 313.93C238.583 313.65 239.157 313.51 239.792 313.51C240.52 313.51 241.164 313.669 241.724 313.986C242.284 314.303 242.727 314.747 243.054 315.316C243.381 315.876 243.544 316.534 243.544 317.29C243.544 318.046 243.381 318.709 243.054 319.278C242.727 319.847 242.284 320.291 241.724 320.608C241.164 320.925 240.52 321.084 239.792 321.084ZM235.858 323.716V313.58H237.146V315.582L237.062 317.304L237.202 319.026V323.716H235.858ZM239.68 319.908C240.156 319.908 240.581 319.801 240.954 319.586C241.337 319.371 241.635 319.068 241.85 318.676C242.074 318.275 242.186 317.813 242.186 317.29C242.186 316.758 242.074 316.301 241.85 315.918C241.635 315.526 241.337 315.223 240.954 315.008C240.581 314.793 240.156 314.686 239.68 314.686C239.213 314.686 238.789 314.793 238.406 315.008C238.033 315.223 237.734 315.526 237.51 315.918C237.295 316.301 237.188 316.758 237.188 317.29C237.188 317.813 237.295 318.275 237.51 318.676C237.734 319.068 238.033 319.371 238.406 319.586C238.789 319.801 239.213 319.908 239.68 319.908ZM245.401 321V310.612H246.745V321H245.401ZM247.645 322.4L252.265 309.212H253.483L248.863 322.4H247.645ZM255.418 321.084C254.802 321.084 254.214 321 253.654 320.832C253.103 320.664 252.669 320.459 252.352 320.216L252.912 319.152C253.229 319.367 253.621 319.549 254.088 319.698C254.554 319.847 255.03 319.922 255.516 319.922C256.141 319.922 256.589 319.833 256.86 319.656C257.14 319.479 257.28 319.231 257.28 318.914C257.28 318.681 257.196 318.499 257.028 318.368C256.86 318.237 256.636 318.139 256.356 318.074C256.085 318.009 255.782 317.953 255.446 317.906C255.11 317.85 254.774 317.785 254.438 317.71C254.102 317.626 253.794 317.514 253.514 317.374C253.234 317.225 253.01 317.024 252.842 316.772C252.674 316.511 252.59 316.165 252.59 315.736C252.59 315.288 252.716 314.896 252.968 314.56C253.22 314.224 253.574 313.967 254.032 313.79C254.498 313.603 255.049 313.51 255.684 313.51C256.169 313.51 256.659 313.571 257.154 313.692C257.658 313.804 258.068 313.967 258.386 314.182L257.812 315.246C257.476 315.022 257.126 314.868 256.762 314.784C256.398 314.7 256.034 314.658 255.67 314.658C255.082 314.658 254.643 314.756 254.354 314.952C254.064 315.139 253.92 315.381 253.92 315.68C253.92 315.932 254.004 316.128 254.172 316.268C254.349 316.399 254.573 316.501 254.844 316.576C255.124 316.651 255.432 316.716 255.768 316.772C256.104 316.819 256.44 316.884 256.776 316.968C257.112 317.043 257.415 317.15 257.686 317.29C257.966 317.43 258.19 317.626 258.358 317.878C258.535 318.13 258.624 318.466 258.624 318.886C258.624 319.334 258.493 319.721 258.232 320.048C257.97 320.375 257.602 320.631 257.126 320.818C256.65 320.995 256.08 321.084 255.418 321.084ZM262.851 321.084C262.105 321.084 261.526 320.883 261.115 320.482C260.705 320.081 260.499 319.507 260.499 318.76V311.956H261.843V318.704C261.843 319.105 261.941 319.413 262.137 319.628C262.343 319.843 262.632 319.95 263.005 319.95C263.425 319.95 263.775 319.833 264.055 319.6L264.475 320.566C264.27 320.743 264.023 320.874 263.733 320.958C263.453 321.042 263.159 321.084 262.851 321.084ZM259.239 314.686V313.58H263.971V314.686H259.239ZM266.1 321V313.58H267.388V315.596L267.262 315.092C267.468 314.579 267.813 314.187 268.298 313.916C268.784 313.645 269.381 313.51 270.09 313.51V314.812C270.034 314.803 269.978 314.798 269.922 314.798C269.876 314.798 269.829 314.798 269.782 314.798C269.064 314.798 268.494 315.013 268.074 315.442C267.654 315.871 267.444 316.492 267.444 317.304V321H266.1ZM274.856 321.084C274.11 321.084 273.447 320.921 272.868 320.594C272.29 320.267 271.832 319.819 271.496 319.25C271.16 318.671 270.992 318.018 270.992 317.29C270.992 316.553 271.16 315.899 271.496 315.33C271.832 314.761 272.29 314.317 272.868 314C273.447 313.673 274.11 313.51 274.856 313.51C275.594 313.51 276.252 313.673 276.83 314C277.418 314.317 277.876 314.761 278.202 315.33C278.538 315.89 278.706 316.543 278.706 317.29C278.706 318.027 278.538 318.681 278.202 319.25C277.876 319.819 277.418 320.267 276.83 320.594C276.252 320.921 275.594 321.084 274.856 321.084ZM274.856 319.908C275.332 319.908 275.757 319.801 276.13 319.586C276.513 319.371 276.812 319.068 277.026 318.676C277.241 318.275 277.348 317.813 277.348 317.29C277.348 316.758 277.241 316.301 277.026 315.918C276.812 315.526 276.513 315.223 276.13 315.008C275.757 314.793 275.332 314.686 274.856 314.686C274.38 314.686 273.956 314.793 273.582 315.008C273.209 315.223 272.91 315.526 272.686 315.918C272.462 316.301 272.35 316.758 272.35 317.29C272.35 317.813 272.462 318.275 272.686 318.676C272.91 319.068 273.209 319.371 273.582 319.586C273.956 319.801 274.38 319.908 274.856 319.908ZM284.527 313.51C285.134 313.51 285.666 313.627 286.123 313.86C286.59 314.093 286.954 314.448 287.215 314.924C287.476 315.4 287.607 316.002 287.607 316.73V321H286.263V316.884C286.263 316.165 286.086 315.624 285.731 315.26C285.386 314.896 284.896 314.714 284.261 314.714C283.785 314.714 283.37 314.807 283.015 314.994C282.66 315.181 282.385 315.456 282.189 315.82C282.002 316.184 281.909 316.637 281.909 317.178V321H280.565V313.58H281.853V315.582L281.643 315.05C281.886 314.565 282.259 314.187 282.763 313.916C283.267 313.645 283.855 313.51 284.527 313.51ZM294.7 321V319.432L294.63 319.138V316.464C294.63 315.895 294.462 315.456 294.126 315.148C293.8 314.831 293.305 314.672 292.642 314.672C292.204 314.672 291.774 314.747 291.354 314.896C290.934 315.036 290.58 315.227 290.29 315.47L289.73 314.462C290.113 314.154 290.57 313.921 291.102 313.762C291.644 313.594 292.208 313.51 292.796 313.51C293.814 313.51 294.598 313.757 295.148 314.252C295.699 314.747 295.974 315.503 295.974 316.52V321H294.7ZM292.264 321.084C291.714 321.084 291.228 320.991 290.808 320.804C290.398 320.617 290.08 320.361 289.856 320.034C289.632 319.698 289.52 319.32 289.52 318.9C289.52 318.499 289.614 318.135 289.8 317.808C289.996 317.481 290.309 317.22 290.738 317.024C291.177 316.828 291.765 316.73 292.502 316.73H294.854V317.696H292.558C291.886 317.696 291.434 317.808 291.2 318.032C290.967 318.256 290.85 318.527 290.85 318.844C290.85 319.208 290.995 319.502 291.284 319.726C291.574 319.941 291.975 320.048 292.488 320.048C292.992 320.048 293.431 319.936 293.804 319.712C294.187 319.488 294.462 319.161 294.63 318.732L294.896 319.656C294.719 320.095 294.406 320.445 293.958 320.706C293.51 320.958 292.946 321.084 292.264 321.084ZM297.986 317.738V316.576H301.752V317.738H297.986ZM307.206 323.8C306.524 323.8 305.862 323.702 305.218 323.506C304.583 323.319 304.065 323.049 303.664 322.694L304.308 321.658C304.653 321.957 305.078 322.19 305.582 322.358C306.086 322.535 306.613 322.624 307.164 322.624C308.041 322.624 308.685 322.419 309.096 322.008C309.506 321.597 309.712 320.972 309.712 320.132V318.564L309.852 317.094L309.782 315.61V313.58H311.056V319.992C311.056 321.299 310.729 322.26 310.076 322.876C309.422 323.492 308.466 323.8 307.206 323.8ZM307.038 320.692C306.319 320.692 305.675 320.543 305.106 320.244C304.546 319.936 304.098 319.511 303.762 318.97C303.435 318.429 303.272 317.803 303.272 317.094C303.272 316.375 303.435 315.75 303.762 315.218C304.098 314.677 304.546 314.257 305.106 313.958C305.675 313.659 306.319 313.51 307.038 313.51C307.672 313.51 308.251 313.641 308.774 313.902C309.296 314.154 309.712 314.546 310.02 315.078C310.337 315.61 310.496 316.282 310.496 317.094C310.496 317.897 310.337 318.564 310.02 319.096C309.712 319.628 309.296 320.029 308.774 320.3C308.251 320.561 307.672 320.692 307.038 320.692ZM307.192 319.516C307.686 319.516 308.125 319.413 308.508 319.208C308.89 319.003 309.189 318.718 309.404 318.354C309.628 317.99 309.74 317.57 309.74 317.094C309.74 316.618 309.628 316.198 309.404 315.834C309.189 315.47 308.89 315.19 308.508 314.994C308.125 314.789 307.686 314.686 307.192 314.686C306.697 314.686 306.254 314.789 305.862 314.994C305.479 315.19 305.176 315.47 304.952 315.834C304.737 316.198 304.63 316.618 304.63 317.094C304.63 317.57 304.737 317.99 304.952 318.354C305.176 318.718 305.479 319.003 305.862 319.208C306.254 319.413 306.697 319.516 307.192 319.516ZM313.624 321V310.612H314.968V321H313.624ZM320.712 321.084C319.965 321.084 319.302 320.921 318.724 320.594C318.145 320.267 317.688 319.819 317.352 319.25C317.016 318.671 316.848 318.018 316.848 317.29C316.848 316.553 317.016 315.899 317.352 315.33C317.688 314.761 318.145 314.317 318.724 314C319.302 313.673 319.965 313.51 320.712 313.51C321.449 313.51 322.107 313.673 322.686 314C323.274 314.317 323.731 314.761 324.058 315.33C324.394 315.89 324.562 316.543 324.562 317.29C324.562 318.027 324.394 318.681 324.058 319.25C323.731 319.819 323.274 320.267 322.686 320.594C322.107 320.921 321.449 321.084 320.712 321.084ZM320.712 319.908C321.188 319.908 321.612 319.801 321.986 319.586C322.368 319.371 322.667 319.068 322.882 318.676C323.096 318.275 323.204 317.813 323.204 317.29C323.204 316.758 323.096 316.301 322.882 315.918C322.667 315.526 322.368 315.223 321.986 315.008C321.612 314.793 321.188 314.686 320.712 314.686C320.236 314.686 319.811 314.793 319.438 315.008C319.064 315.223 318.766 315.526 318.542 315.918C318.318 316.301 318.206 316.758 318.206 317.29C318.206 317.813 318.318 318.275 318.542 318.676C318.766 319.068 319.064 319.371 319.438 319.586C319.811 319.801 320.236 319.908 320.712 319.908ZM327.783 321L325.025 313.58H326.299L328.749 320.3H328.147L330.695 313.58H331.829L334.321 320.3H333.733L336.239 313.58H337.443L334.671 321H333.383L331.045 314.868H331.437L329.071 321H327.783ZM342.769 313.51C343.376 313.51 343.908 313.627 344.365 313.86C344.832 314.093 345.196 314.448 345.457 314.924C345.719 315.4 345.849 316.002 345.849 316.73V321H344.505V316.884C344.505 316.165 344.328 315.624 343.973 315.26C343.628 314.896 343.138 314.714 342.503 314.714C342.027 314.714 341.612 314.807 341.257 314.994C340.903 315.181 340.627 315.456 340.431 315.82C340.245 316.184 340.151 316.637 340.151 317.178V321H338.807V313.58H340.095V315.582L339.885 315.05C340.128 314.565 340.501 314.187 341.005 313.916C341.509 313.645 342.097 313.51 342.769 313.51ZM352.943 321V319.432L352.873 319.138V316.464C352.873 315.895 352.705 315.456 352.369 315.148C352.042 314.831 351.547 314.672 350.885 314.672C350.446 314.672 350.017 314.747 349.597 314.896C349.177 315.036 348.822 315.227 348.533 315.47L347.973 314.462C348.355 314.154 348.813 313.921 349.345 313.762C349.886 313.594 350.451 313.51 351.039 313.51C352.056 313.51 352.84 313.757 353.391 314.252C353.941 314.747 354.217 315.503 354.217 316.52V321H352.943ZM350.507 321.084C349.956 321.084 349.471 320.991 349.051 320.804C348.64 320.617 348.323 320.361 348.099 320.034C347.875 319.698 347.763 319.32 347.763 318.9C347.763 318.499 347.856 318.135 348.043 317.808C348.239 317.481 348.551 317.22 348.981 317.024C349.419 316.828 350.007 316.73 350.745 316.73H353.097V317.696H350.801C350.129 317.696 349.676 317.808 349.443 318.032C349.209 318.256 349.093 318.527 349.093 318.844C349.093 319.208 349.237 319.502 349.527 319.726C349.816 319.941 350.217 320.048 350.731 320.048C351.235 320.048 351.673 319.936 352.047 319.712C352.429 319.488 352.705 319.161 352.873 318.732L353.139 319.656C352.961 320.095 352.649 320.445 352.201 320.706C351.753 320.958 351.188 321.084 350.507 321.084ZM355.038 322.4L359.658 309.212H360.876L356.256 322.4H355.038Z" fill="#363C56"/>
<path d="M121.368 295V286.6H122.256V294.232H126.96V295H121.368ZM128.254 295V288.7H129.106V295H128.254ZM128.686 287.308C128.51 287.308 128.362 287.248 128.242 287.128C128.122 287.008 128.062 286.864 128.062 286.696C128.062 286.528 128.122 286.388 128.242 286.276C128.362 286.156 128.51 286.096 128.686 286.096C128.862 286.096 129.01 286.152 129.13 286.264C129.25 286.376 129.31 286.516 129.31 286.684C129.31 286.86 129.25 287.008 129.13 287.128C129.018 287.248 128.87 287.308 128.686 287.308ZM134.693 288.64C135.205 288.64 135.653 288.74 136.037 288.94C136.429 289.132 136.733 289.428 136.949 289.828C137.173 290.228 137.285 290.732 137.285 291.34V295H136.433V291.424C136.433 290.76 136.265 290.26 135.929 289.924C135.601 289.58 135.137 289.408 134.537 289.408C134.089 289.408 133.697 289.5 133.361 289.684C133.033 289.86 132.777 290.12 132.593 290.464C132.417 290.8 132.329 291.208 132.329 291.688V295H131.477V288.7H132.293V290.428L132.161 290.104C132.361 289.648 132.681 289.292 133.121 289.036C133.561 288.772 134.085 288.64 134.693 288.64ZM140.258 293.368L140.282 292.276L144.206 288.7H145.25L142.478 291.352L141.998 291.76L140.258 293.368ZM139.586 295V286.096H140.438V295H139.586ZM144.47 295L141.842 291.724L142.394 291.064L145.514 295H144.47ZM151.926 295.06C151.334 295.06 150.878 294.9 150.558 294.58C150.238 294.26 150.078 293.808 150.078 293.224V287.308H150.93V293.176C150.93 293.544 151.022 293.828 151.206 294.028C151.398 294.228 151.67 294.328 152.022 294.328C152.398 294.328 152.71 294.22 152.958 294.004L153.258 294.616C153.09 294.768 152.886 294.88 152.646 294.952C152.414 295.024 152.174 295.06 151.926 295.06ZM148.95 289.408V288.7H152.85V289.408H148.95ZM157.154 295.06C156.546 295.06 155.998 294.924 155.51 294.652C155.03 294.372 154.65 293.992 154.37 293.512C154.09 293.024 153.95 292.468 153.95 291.844C153.95 291.212 154.09 290.656 154.37 290.176C154.65 289.696 155.03 289.32 155.51 289.048C155.99 288.776 156.538 288.64 157.154 288.64C157.778 288.64 158.33 288.776 158.81 289.048C159.298 289.32 159.678 289.696 159.95 290.176C160.23 290.656 160.37 291.212 160.37 291.844C160.37 292.468 160.23 293.024 159.95 293.512C159.678 293.992 159.298 294.372 158.81 294.652C158.322 294.924 157.77 295.06 157.154 295.06ZM157.154 294.304C157.61 294.304 158.014 294.204 158.366 294.004C158.718 293.796 158.994 293.508 159.194 293.14C159.402 292.764 159.506 292.332 159.506 291.844C159.506 291.348 159.402 290.916 159.194 290.548C158.994 290.18 158.718 289.896 158.366 289.696C158.014 289.488 157.614 289.384 157.166 289.384C156.718 289.384 156.318 289.488 155.966 289.696C155.614 289.896 155.334 290.18 155.126 290.548C154.918 290.916 154.814 291.348 154.814 291.844C154.814 292.332 154.918 292.764 155.126 293.14C155.334 293.508 155.614 293.796 155.966 294.004C156.318 294.204 156.714 294.304 157.154 294.304ZM166.943 295.06C166.423 295.06 165.931 294.988 165.467 294.844C165.003 294.692 164.639 294.504 164.375 294.28L164.759 293.608C165.015 293.8 165.343 293.968 165.743 294.112C166.143 294.248 166.563 294.316 167.003 294.316C167.603 294.316 168.035 294.224 168.299 294.04C168.563 293.848 168.695 293.596 168.695 293.284C168.695 293.052 168.619 292.872 168.467 292.744C168.323 292.608 168.131 292.508 167.891 292.444C167.651 292.372 167.383 292.312 167.087 292.264C166.791 292.216 166.495 292.16 166.199 292.096C165.911 292.032 165.647 291.94 165.407 291.82C165.167 291.692 164.971 291.52 164.819 291.304C164.675 291.088 164.603 290.8 164.603 290.44C164.603 290.096 164.699 289.788 164.891 289.516C165.083 289.244 165.363 289.032 165.731 288.88C166.107 288.72 166.563 288.64 167.099 288.64C167.507 288.64 167.915 288.696 168.323 288.808C168.731 288.912 169.067 289.052 169.331 289.228L168.959 289.912C168.679 289.72 168.379 289.584 168.059 289.504C167.739 289.416 167.419 289.372 167.099 289.372C166.531 289.372 166.111 289.472 165.839 289.672C165.575 289.864 165.443 290.112 165.443 290.416C165.443 290.656 165.515 290.844 165.659 290.98C165.811 291.116 166.007 291.224 166.247 291.304C166.495 291.376 166.763 291.436 167.051 291.484C167.347 291.532 167.639 291.592 167.927 291.664C168.223 291.728 168.491 291.82 168.731 291.94C168.979 292.052 169.175 292.216 169.319 292.432C169.471 292.64 169.547 292.916 169.547 293.26C169.547 293.628 169.443 293.948 169.235 294.22C169.035 294.484 168.739 294.692 168.347 294.844C167.963 294.988 167.495 295.06 166.943 295.06ZM174.326 288.64C174.838 288.64 175.286 288.74 175.67 288.94C176.062 289.132 176.366 289.428 176.582 289.828C176.806 290.228 176.918 290.732 176.918 291.34V295H176.066V291.424C176.066 290.76 175.898 290.26 175.562 289.924C175.234 289.58 174.77 289.408 174.17 289.408C173.722 289.408 173.33 289.5 172.994 289.684C172.666 289.86 172.41 290.12 172.226 290.464C172.05 290.8 171.962 291.208 171.962 291.688V295H171.11V286.096H171.962V290.428L171.794 290.104C171.994 289.648 172.314 289.292 172.754 289.036C173.194 288.772 173.718 288.64 174.326 288.64ZM181.787 295.06C181.179 295.06 180.631 294.924 180.143 294.652C179.663 294.372 179.283 293.992 179.003 293.512C178.723 293.024 178.583 292.468 178.583 291.844C178.583 291.212 178.723 290.656 179.003 290.176C179.283 289.696 179.663 289.32 180.143 289.048C180.623 288.776 181.171 288.64 181.787 288.64C182.411 288.64 182.963 288.776 183.443 289.048C183.931 289.32 184.311 289.696 184.583 290.176C184.863 290.656 185.003 291.212 185.003 291.844C185.003 292.468 184.863 293.024 184.583 293.512C184.311 293.992 183.931 294.372 183.443 294.652C182.955 294.924 182.403 295.06 181.787 295.06ZM181.787 294.304C182.243 294.304 182.647 294.204 182.999 294.004C183.351 293.796 183.627 293.508 183.827 293.14C184.035 292.764 184.139 292.332 184.139 291.844C184.139 291.348 184.035 290.916 183.827 290.548C183.627 290.18 183.351 289.896 182.999 289.696C182.647 289.488 182.247 289.384 181.799 289.384C181.351 289.384 180.951 289.488 180.599 289.696C180.247 289.896 179.967 290.18 179.759 290.548C179.551 290.916 179.447 291.348 179.447 291.844C179.447 292.332 179.551 292.764 179.759 293.14C179.967 293.508 180.247 293.796 180.599 294.004C180.951 294.204 181.347 294.304 181.787 294.304ZM186.743 295V288.7H187.559V290.416L187.475 290.116C187.651 289.636 187.947 289.272 188.363 289.024C188.779 288.768 189.295 288.64 189.911 288.64V289.468C189.879 289.468 189.847 289.468 189.815 289.468C189.783 289.46 189.751 289.456 189.719 289.456C189.055 289.456 188.535 289.66 188.159 290.068C187.783 290.468 187.595 291.04 187.595 291.784V295H186.743ZM193.727 295.06C193.135 295.06 192.679 294.9 192.359 294.58C192.039 294.26 191.879 293.808 191.879 293.224V287.308H192.731V293.176C192.731 293.544 192.823 293.828 193.007 294.028C193.199 294.228 193.471 294.328 193.823 294.328C194.199 294.328 194.511 294.22 194.759 294.004L195.059 294.616C194.891 294.768 194.687 294.88 194.447 294.952C194.215 295.024 193.975 295.06 193.727 295.06ZM190.751 289.408V288.7H194.651V289.408H190.751ZM199.003 295.06C198.379 295.06 197.819 294.924 197.323 294.652C196.835 294.372 196.451 293.992 196.171 293.512C195.891 293.024 195.751 292.468 195.751 291.844C195.751 291.212 195.891 290.656 196.171 290.176C196.451 289.696 196.835 289.32 197.323 289.048C197.819 288.776 198.379 288.64 199.003 288.64C199.539 288.64 200.023 288.744 200.455 288.952C200.887 289.16 201.227 289.472 201.475 289.888L200.839 290.32C200.623 290 200.355 289.764 200.035 289.612C199.715 289.46 199.367 289.384 198.991 289.384C198.543 289.384 198.139 289.488 197.779 289.696C197.419 289.896 197.135 290.18 196.927 290.548C196.719 290.916 196.615 291.348 196.615 291.844C196.615 292.34 196.719 292.772 196.927 293.14C197.135 293.508 197.419 293.796 197.779 294.004C198.139 294.204 198.543 294.304 198.991 294.304C199.367 294.304 199.715 294.228 200.035 294.076C200.355 293.924 200.623 293.692 200.839 293.38L201.475 293.812C201.227 294.22 200.887 294.532 200.455 294.748C200.023 294.956 199.539 295.06 199.003 295.06ZM205.753 295.06C205.217 295.06 204.749 294.96 204.349 294.76C203.949 294.56 203.637 294.26 203.413 293.86C203.197 293.46 203.089 292.96 203.089 292.36V288.7H203.941V292.264C203.941 292.936 204.105 293.444 204.433 293.788C204.769 294.124 205.237 294.292 205.837 294.292C206.277 294.292 206.657 294.204 206.977 294.028C207.305 293.844 207.553 293.58 207.721 293.236C207.897 292.892 207.985 292.48 207.985 292V288.7H208.837V295H208.021V293.272L208.153 293.584C207.953 294.048 207.641 294.412 207.217 294.676C206.801 294.932 206.313 295.06 205.753 295.06ZM213.203 295.06C212.611 295.06 212.155 294.9 211.835 294.58C211.515 294.26 211.355 293.808 211.355 293.224V287.308H212.207V293.176C212.207 293.544 212.299 293.828 212.483 294.028C212.675 294.228 212.947 294.328 213.299 294.328C213.675 294.328 213.987 294.22 214.235 294.004L214.535 294.616C214.367 294.768 214.163 294.88 213.923 294.952C213.691 295.024 213.451 295.06 213.203 295.06ZM210.227 289.408V288.7H214.127V289.408H210.227Z" fill="#4A24AC"/>
<g clip-path="url(#clip0_6_78)" filter="url(#filter1_d_6_78)">
<path d="M120 384C120 371.297 130.297 361 143 361H497C509.703 361 520 371.297 520 384C520 396.703 509.703 407 497 407H143C130.297 407 120 396.703 120 384Z" fill="#4A24AC"/>
<g clip-path="url(#clip1_6_78)">
<path d="M288.826 389.612C288.079 389.612 287.365 389.5 286.684 389.276C286.003 389.043 285.466 388.744 285.074 388.38L285.592 387.288C285.965 387.615 286.441 387.885 287.02 388.1C287.599 388.315 288.201 388.422 288.826 388.422C289.395 388.422 289.857 388.357 290.212 388.226C290.567 388.095 290.828 387.918 290.996 387.694C291.164 387.461 291.248 387.199 291.248 386.91C291.248 386.574 291.136 386.303 290.912 386.098C290.697 385.893 290.413 385.729 290.058 385.608C289.713 385.477 289.33 385.365 288.91 385.272C288.49 385.179 288.065 385.071 287.636 384.95C287.216 384.819 286.829 384.656 286.474 384.46C286.129 384.264 285.849 384.003 285.634 383.676C285.419 383.34 285.312 382.911 285.312 382.388C285.312 381.884 285.443 381.422 285.704 381.002C285.975 380.573 286.385 380.232 286.936 379.98C287.496 379.719 288.205 379.588 289.064 379.588C289.633 379.588 290.198 379.663 290.758 379.812C291.318 379.961 291.803 380.176 292.214 380.456L291.752 381.576C291.332 381.296 290.889 381.095 290.422 380.974C289.955 380.843 289.503 380.778 289.064 380.778C288.513 380.778 288.061 380.848 287.706 380.988C287.351 381.128 287.09 381.315 286.922 381.548C286.763 381.781 286.684 382.043 286.684 382.332C286.684 382.677 286.791 382.953 287.006 383.158C287.23 383.363 287.515 383.527 287.86 383.648C288.215 383.769 288.602 383.881 289.022 383.984C289.442 384.077 289.862 384.185 290.282 384.306C290.711 384.427 291.099 384.586 291.444 384.782C291.799 384.978 292.083 385.239 292.298 385.566C292.513 385.893 292.62 386.313 292.62 386.826C292.62 387.321 292.485 387.783 292.214 388.212C291.943 388.632 291.523 388.973 290.954 389.234C290.394 389.486 289.685 389.612 288.826 389.612ZM298.431 382.01C299.038 382.01 299.57 382.127 300.027 382.36C300.494 382.593 300.858 382.948 301.119 383.424C301.381 383.9 301.511 384.502 301.511 385.23V389.5H300.167V385.384C300.167 384.665 299.99 384.124 299.635 383.76C299.29 383.396 298.8 383.214 298.165 383.214C297.689 383.214 297.274 383.307 296.919 383.494C296.565 383.681 296.289 383.956 296.093 384.32C295.907 384.684 295.813 385.137 295.813 385.678V389.5H294.469V379.112H295.813V384.082L295.547 383.55C295.79 383.065 296.163 382.687 296.667 382.416C297.171 382.145 297.759 382.01 298.431 382.01ZM307.177 389.584C306.43 389.584 305.767 389.421 305.189 389.094C304.61 388.767 304.153 388.319 303.817 387.75C303.481 387.171 303.313 386.518 303.313 385.79C303.313 385.053 303.481 384.399 303.817 383.83C304.153 383.261 304.61 382.817 305.189 382.5C305.767 382.173 306.43 382.01 307.177 382.01C307.914 382.01 308.572 382.173 309.151 382.5C309.739 382.817 310.196 383.261 310.523 383.83C310.859 384.39 311.027 385.043 311.027 385.79C311.027 386.527 310.859 387.181 310.523 387.75C310.196 388.319 309.739 388.767 309.151 389.094C308.572 389.421 307.914 389.584 307.177 389.584ZM307.177 388.408C307.653 388.408 308.077 388.301 308.451 388.086C308.833 387.871 309.132 387.568 309.347 387.176C309.561 386.775 309.669 386.313 309.669 385.79C309.669 385.258 309.561 384.801 309.347 384.418C309.132 384.026 308.833 383.723 308.451 383.508C308.077 383.293 307.653 383.186 307.177 383.186C306.701 383.186 306.276 383.293 305.903 383.508C305.529 383.723 305.231 384.026 305.007 384.418C304.783 384.801 304.671 385.258 304.671 385.79C304.671 386.313 304.783 386.775 305.007 387.176C305.231 387.568 305.529 387.871 305.903 388.086C306.276 388.301 306.701 388.408 307.177 388.408ZM312.885 389.5V382.08H314.173V384.096L314.047 383.592C314.253 383.079 314.598 382.687 315.083 382.416C315.569 382.145 316.166 382.01 316.875 382.01V383.312C316.819 383.303 316.763 383.298 316.707 383.298C316.661 383.298 316.614 383.298 316.567 383.298C315.849 383.298 315.279 383.513 314.859 383.942C314.439 384.371 314.229 384.992 314.229 385.804V389.5H312.885ZM321.381 389.584C320.634 389.584 320.055 389.383 319.645 388.982C319.234 388.581 319.029 388.007 319.029 387.26V380.456H320.373V387.204C320.373 387.605 320.471 387.913 320.667 388.128C320.872 388.343 321.161 388.45 321.535 388.45C321.955 388.45 322.305 388.333 322.585 388.1L323.005 389.066C322.799 389.243 322.552 389.374 322.263 389.458C321.983 389.542 321.689 389.584 321.381 389.584ZM317.769 383.186V382.08H322.501V383.186H317.769ZM327.687 389.584C326.894 389.584 326.194 389.421 325.587 389.094C324.99 388.767 324.523 388.319 324.187 387.75C323.861 387.181 323.697 386.527 323.697 385.79C323.697 385.053 323.856 384.399 324.173 383.83C324.5 383.261 324.943 382.817 325.503 382.5C326.073 382.173 326.712 382.01 327.421 382.01C328.14 382.01 328.775 382.169 329.325 382.486C329.876 382.803 330.305 383.251 330.613 383.83C330.931 384.399 331.089 385.067 331.089 385.832C331.089 385.888 331.085 385.953 331.075 386.028C331.075 386.103 331.071 386.173 331.061 386.238H324.747V385.272H330.361L329.815 385.608C329.825 385.132 329.727 384.707 329.521 384.334C329.316 383.961 329.031 383.671 328.667 383.466C328.313 383.251 327.897 383.144 327.421 383.144C326.955 383.144 326.539 383.251 326.175 383.466C325.811 383.671 325.527 383.965 325.321 384.348C325.116 384.721 325.013 385.151 325.013 385.636V385.86C325.013 386.355 325.125 386.798 325.349 387.19C325.583 387.573 325.905 387.871 326.315 388.086C326.726 388.301 327.197 388.408 327.729 388.408C328.168 388.408 328.565 388.333 328.919 388.184C329.283 388.035 329.601 387.811 329.871 387.512L330.613 388.38C330.277 388.772 329.857 389.071 329.353 389.276C328.859 389.481 328.303 389.584 327.687 389.584ZM336.918 382.01C337.524 382.01 338.056 382.127 338.514 382.36C338.98 382.593 339.344 382.948 339.606 383.424C339.867 383.9 339.998 384.502 339.998 385.23V389.5H338.654V385.384C338.654 384.665 338.476 384.124 338.122 383.76C337.776 383.396 337.286 383.214 336.652 383.214C336.176 383.214 335.76 383.307 335.406 383.494C335.051 383.681 334.776 383.956 334.58 384.32C334.393 384.684 334.3 385.137 334.3 385.678V389.5H332.956V382.08H334.244V384.082L334.034 383.55C334.276 383.065 334.65 382.687 335.154 382.416C335.658 382.145 336.246 382.01 336.918 382.01ZM346.245 389.5V382.08H347.589V389.5H346.245ZM346.917 380.652C346.655 380.652 346.436 380.568 346.259 380.4C346.091 380.232 346.007 380.027 346.007 379.784C346.007 379.532 346.091 379.322 346.259 379.154C346.436 378.986 346.655 378.902 346.917 378.902C347.178 378.902 347.393 378.986 347.561 379.154C347.738 379.313 347.827 379.513 347.827 379.756C347.827 380.008 347.743 380.223 347.575 380.4C347.407 380.568 347.187 380.652 346.917 380.652ZM352.703 389.584C351.956 389.584 351.378 389.383 350.967 388.982C350.556 388.581 350.351 388.007 350.351 387.26V380.456H351.695V387.204C351.695 387.605 351.793 387.913 351.989 388.128C352.194 388.343 352.484 388.45 352.857 388.45C353.277 388.45 353.627 388.333 353.907 388.1L354.327 389.066C354.122 389.243 353.874 389.374 353.585 389.458C353.305 389.542 353.011 389.584 352.703 389.584ZM349.091 383.186V382.08H353.823V383.186H349.091Z" fill="white"/>
</g>
</g>
<rect x="120" y="431" width="400" height="56" rx="8" fill="#FAFAFA"/>
<path d="M141.985 456.31C142.625 456.31 143.195 456.44 143.695 456.7C144.205 456.95 144.605 457.34 144.895 457.87C145.185 458.39 145.33 459.06 145.33 459.88V464.5H142.99V460.24C142.99 459.59 142.845 459.11 142.555 458.8C142.275 458.49 141.875 458.335 141.355 458.335C140.985 458.335 140.65 458.415 140.35 458.575C140.06 458.725 139.83 458.96 139.66 459.28C139.5 459.6 139.42 460.01 139.42 460.51V464.5H137.08V453.37H139.42V458.665L138.895 457.99C139.185 457.45 139.6 457.035 140.14 456.745C140.68 456.455 141.295 456.31 141.985 456.31ZM150.751 464.62C149.801 464.62 149.061 464.38 148.531 463.9C148.001 463.41 147.736 462.685 147.736 461.725V454.645H150.076V461.695C150.076 462.035 150.166 462.3 150.346 462.49C150.526 462.67 150.771 462.76 151.081 462.76C151.451 462.76 151.766 462.66 152.026 462.46L152.656 464.11C152.416 464.28 152.126 464.41 151.786 464.5C151.456 464.58 151.111 464.62 150.751 464.62ZM146.491 458.41V456.61H152.086V458.41H146.491ZM157.094 464.62C156.144 464.62 155.404 464.38 154.874 463.9C154.344 463.41 154.079 462.685 154.079 461.725V454.645H156.419V461.695C156.419 462.035 156.509 462.3 156.689 462.49C156.869 462.67 157.114 462.76 157.424 462.76C157.794 462.76 158.109 462.66 158.369 462.46L158.999 464.11C158.759 464.28 158.469 464.41 158.129 464.5C157.799 464.58 157.454 464.62 157.094 464.62ZM152.834 458.41V456.61H158.429V458.41H152.834ZM165.082 464.62C164.402 464.62 163.807 464.47 163.297 464.17C162.787 463.87 162.387 463.415 162.097 462.805C161.817 462.185 161.677 461.405 161.677 460.465C161.677 459.515 161.812 458.735 162.082 458.125C162.352 457.515 162.742 457.06 163.252 456.76C163.762 456.46 164.372 456.31 165.082 456.31C165.842 456.31 166.522 456.485 167.122 456.835C167.732 457.175 168.212 457.655 168.562 458.275C168.922 458.895 169.102 459.625 169.102 460.465C169.102 461.315 168.922 462.05 168.562 462.67C168.212 463.29 167.732 463.77 167.122 464.11C166.522 464.45 165.842 464.62 165.082 464.62ZM160.312 467.41V456.43H162.547V458.08L162.502 460.48L162.652 462.865V467.41H160.312ZM164.677 462.7C165.067 462.7 165.412 462.61 165.712 462.43C166.022 462.25 166.267 461.995 166.447 461.665C166.637 461.325 166.732 460.925 166.732 460.465C166.732 459.995 166.637 459.595 166.447 459.265C166.267 458.935 166.022 458.68 165.712 458.5C165.412 458.32 165.067 458.23 164.677 458.23C164.287 458.23 163.937 458.32 163.627 458.5C163.317 458.68 163.072 458.935 162.892 459.265C162.712 459.595 162.622 459.995 162.622 460.465C162.622 460.925 162.712 461.325 162.892 461.665C163.072 461.995 163.317 462.25 163.627 462.43C163.937 462.61 164.287 462.7 164.677 462.7ZM173.384 464.62C172.694 464.62 172.029 464.54 171.389 464.38C170.759 464.21 170.259 464 169.889 463.75L170.669 462.07C171.039 462.3 171.474 462.49 171.974 462.64C172.484 462.78 172.984 462.85 173.474 462.85C174.014 462.85 174.394 462.785 174.614 462.655C174.844 462.525 174.959 462.345 174.959 462.115C174.959 461.925 174.869 461.785 174.689 461.695C174.519 461.595 174.289 461.52 173.999 461.47C173.709 461.42 173.389 461.37 173.039 461.32C172.699 461.27 172.354 461.205 172.004 461.125C171.654 461.035 171.334 460.905 171.044 460.735C170.754 460.565 170.519 460.335 170.339 460.045C170.169 459.755 170.084 459.38 170.084 458.92C170.084 458.41 170.229 457.96 170.519 457.57C170.819 457.18 171.249 456.875 171.809 456.655C172.369 456.425 173.039 456.31 173.819 456.31C174.369 456.31 174.929 456.37 175.499 456.49C176.069 456.61 176.544 456.785 176.924 457.015L176.144 458.68C175.754 458.45 175.359 458.295 174.959 458.215C174.569 458.125 174.189 458.08 173.819 458.08C173.299 458.08 172.919 458.15 172.679 458.29C172.439 458.43 172.319 458.61 172.319 458.83C172.319 459.03 172.404 459.18 172.574 459.28C172.754 459.38 172.989 459.46 173.279 459.52C173.569 459.58 173.884 459.635 174.224 459.685C174.574 459.725 174.924 459.79 175.274 459.88C175.624 459.97 175.939 460.1 176.219 460.27C176.509 460.43 176.744 460.655 176.924 460.945C177.104 461.225 177.194 461.595 177.194 462.055C177.194 462.555 177.044 463 176.744 463.39C176.444 463.77 176.009 464.07 175.439 464.29C174.879 464.51 174.194 464.62 173.384 464.62ZM179.523 459.235C179.123 459.235 178.778 459.1 178.488 458.83C178.208 458.55 178.068 458.195 178.068 457.765C178.068 457.335 178.208 456.99 178.488 456.73C178.778 456.46 179.123 456.325 179.523 456.325C179.933 456.325 180.278 456.46 180.558 456.73C180.838 456.99 180.978 457.335 180.978 457.765C180.978 458.195 180.838 458.55 180.558 458.83C180.278 459.1 179.933 459.235 179.523 459.235ZM179.523 464.62C179.123 464.62 178.778 464.485 178.488 464.215C178.208 463.935 178.068 463.58 178.068 463.15C178.068 462.72 178.208 462.375 178.488 462.115C178.778 461.845 179.123 461.71 179.523 461.71C179.933 461.71 180.278 461.845 180.558 462.115C180.838 462.375 180.978 462.72 180.978 463.15C180.978 463.58 180.838 463.935 180.558 464.215C180.278 464.485 179.933 464.62 179.523 464.62ZM181.794 466L186.744 451.87H188.829L183.879 466H181.794ZM186.569 466L191.519 451.87H193.604L188.654 466H186.569ZM196.966 464.62C196.096 464.62 195.321 464.445 194.641 464.095C193.961 463.735 193.426 463.24 193.036 462.61C192.656 461.98 192.466 461.265 192.466 460.465C192.466 459.655 192.656 458.94 193.036 458.32C193.426 457.69 193.961 457.2 194.641 456.85C195.321 456.49 196.096 456.31 196.966 456.31C197.816 456.31 198.556 456.49 199.186 456.85C199.816 457.2 200.281 457.705 200.581 458.365L198.766 459.34C198.556 458.96 198.291 458.68 197.971 458.5C197.661 458.32 197.321 458.23 196.951 458.23C196.551 458.23 196.191 458.32 195.871 458.5C195.551 458.68 195.296 458.935 195.106 459.265C194.926 459.595 194.836 459.995 194.836 460.465C194.836 460.935 194.926 461.335 195.106 461.665C195.296 461.995 195.551 462.25 195.871 462.43C196.191 462.61 196.551 462.7 196.951 462.7C197.321 462.7 197.661 462.615 197.971 462.445C198.291 462.265 198.556 461.98 198.766 461.59L200.581 462.58C200.281 463.23 199.816 463.735 199.186 464.095C198.556 464.445 197.816 464.62 196.966 464.62ZM205.831 464.62C204.911 464.62 204.101 464.44 203.401 464.08C202.711 463.72 202.176 463.23 201.796 462.61C201.416 461.98 201.226 461.265 201.226 460.465C201.226 459.655 201.411 458.94 201.781 458.32C202.161 457.69 202.676 457.2 203.326 456.85C203.976 456.49 204.711 456.31 205.531 456.31C206.321 456.31 207.031 456.48 207.661 456.82C208.301 457.15 208.806 457.63 209.176 458.26C209.546 458.88 209.731 459.625 209.731 460.495C209.731 460.585 209.726 460.69 209.716 460.81C209.706 460.92 209.696 461.025 209.686 461.125H203.131V459.76H208.456L207.556 460.165C207.556 459.745 207.471 459.38 207.301 459.07C207.131 458.76 206.896 458.52 206.596 458.35C206.296 458.17 205.946 458.08 205.546 458.08C205.146 458.08 204.791 458.17 204.481 458.35C204.181 458.52 203.946 458.765 203.776 459.085C203.606 459.395 203.521 459.765 203.521 460.195V460.555C203.521 460.995 203.616 461.385 203.806 461.725C204.006 462.055 204.281 462.31 204.631 462.49C204.991 462.66 205.411 462.745 205.891 462.745C206.321 462.745 206.696 462.68 207.016 462.55C207.346 462.42 207.646 462.225 207.916 461.965L209.161 463.315C208.791 463.735 208.326 464.06 207.766 464.29C207.206 464.51 206.561 464.62 205.831 464.62ZM216.194 456.31C216.834 456.31 217.404 456.44 217.904 456.7C218.414 456.95 218.814 457.34 219.104 457.87C219.394 458.39 219.539 459.06 219.539 459.88V464.5H217.199V460.24C217.199 459.59 217.054 459.11 216.764 458.8C216.484 458.49 216.084 458.335 215.564 458.335C215.194 458.335 214.859 458.415 214.559 458.575C214.269 458.725 214.039 458.96 213.869 459.28C213.709 459.6 213.629 460.01 213.629 460.51V464.5H211.289V456.43H213.524V458.665L213.104 457.99C213.394 457.45 213.809 457.035 214.349 456.745C214.889 456.455 215.504 456.31 216.194 456.31ZM224.96 464.62C224.01 464.62 223.27 464.38 222.74 463.9C222.21 463.41 221.945 462.685 221.945 461.725V454.645H224.285V461.695C224.285 462.035 224.375 462.3 224.555 462.49C224.735 462.67 224.98 462.76 225.29 462.76C225.66 462.76 225.975 462.66 226.235 462.46L226.865 464.11C226.625 464.28 226.335 464.41 225.995 464.5C225.665 464.58 225.32 464.62 224.96 464.62ZM220.7 458.41V456.61H226.295V458.41H220.7ZM231.935 464.62C231.015 464.62 230.205 464.44 229.505 464.08C228.815 463.72 228.28 463.23 227.9 462.61C227.52 461.98 227.33 461.265 227.33 460.465C227.33 459.655 227.515 458.94 227.885 458.32C228.265 457.69 228.78 457.2 229.43 456.85C230.08 456.49 230.815 456.31 231.635 456.31C232.425 456.31 233.135 456.48 233.765 456.82C234.405 457.15 234.91 457.63 235.28 458.26C235.65 458.88 235.835 459.625 235.835 460.495C235.835 460.585 235.83 460.69 235.82 460.81C235.81 460.92 235.8 461.025 235.79 461.125H229.235V459.76H234.56L233.66 460.165C233.66 459.745 233.575 459.38 233.405 459.07C233.235 458.76 233 458.52 232.7 458.35C232.4 458.17 232.05 458.08 231.65 458.08C231.25 458.08 230.895 458.17 230.585 458.35C230.285 458.52 230.05 458.765 229.88 459.085C229.71 459.395 229.625 459.765 229.625 460.195V460.555C229.625 460.995 229.72 461.385 229.91 461.725C230.11 462.055 230.385 462.31 230.735 462.49C231.095 462.66 231.515 462.745 231.995 462.745C232.425 462.745 232.8 462.68 233.12 462.55C233.45 462.42 233.75 462.225 234.02 461.965L235.265 463.315C234.895 463.735 234.43 464.06 233.87 464.29C233.31 464.51 232.665 464.62 231.935 464.62ZM237.393 464.5V456.43H239.628V458.71L239.313 458.05C239.553 457.48 239.938 457.05 240.468 456.76C240.998 456.46 241.643 456.31 242.403 456.31V458.47C242.303 458.46 242.213 458.455 242.133 458.455C242.053 458.445 241.968 458.44 241.878 458.44C241.238 458.44 240.718 458.625 240.318 458.995C239.928 459.355 239.733 459.92 239.733 460.69V464.5H237.393ZM244.591 464.62C244.191 464.62 243.846 464.485 243.556 464.215C243.276 463.935 243.136 463.58 243.136 463.15C243.136 462.72 243.276 462.375 243.556 462.115C243.846 461.845 244.191 461.71 244.591 461.71C245.001 461.71 245.346 461.845 245.626 462.115C245.906 462.375 246.046 462.72 246.046 463.15C246.046 463.58 245.906 463.935 245.626 464.215C245.346 464.485 245.001 464.62 244.591 464.62ZM252.728 464.5V462.925L252.578 462.58V459.76C252.578 459.26 252.423 458.87 252.113 458.59C251.813 458.31 251.348 458.17 250.718 458.17C250.288 458.17 249.863 458.24 249.443 458.38C249.033 458.51 248.683 458.69 248.393 458.92L247.553 457.285C247.993 456.975 248.523 456.735 249.143 456.565C249.763 456.395 250.393 456.31 251.033 456.31C252.263 456.31 253.218 456.6 253.898 457.18C254.578 457.76 254.918 458.665 254.918 459.895V464.5H252.728ZM250.268 464.62C249.638 464.62 249.098 464.515 248.648 464.305C248.198 464.085 247.853 463.79 247.613 463.42C247.373 463.05 247.253 462.635 247.253 462.175C247.253 461.695 247.368 461.275 247.598 460.915C247.838 460.555 248.213 460.275 248.723 460.075C249.233 459.865 249.898 459.76 250.718 459.76H252.863V461.125H250.973C250.423 461.125 250.043 461.215 249.833 461.395C249.633 461.575 249.533 461.8 249.533 462.07C249.533 462.37 249.648 462.61 249.878 462.79C250.118 462.96 250.443 463.045 250.853 463.045C251.243 463.045 251.593 462.955 251.903 462.775C252.213 462.585 252.438 462.31 252.578 461.95L252.938 463.03C252.768 463.55 252.458 463.945 252.008 464.215C251.558 464.485 250.978 464.62 250.268 464.62ZM257.036 464.5V456.43H259.376V464.5H257.036ZM258.206 455.305C257.776 455.305 257.426 455.18 257.156 454.93C256.886 454.68 256.751 454.37 256.751 454C256.751 453.63 256.886 453.32 257.156 453.07C257.426 452.82 257.776 452.695 258.206 452.695C258.636 452.695 258.986 452.815 259.256 453.055C259.526 453.285 259.661 453.585 259.661 453.955C259.661 454.345 259.526 454.67 259.256 454.93C258.996 455.18 258.646 455.305 258.206 455.305ZM259.973 466L264.923 451.87H267.008L262.058 466H259.973ZM271.24 464.62C270.56 464.62 269.965 464.47 269.455 464.17C268.945 463.87 268.545 463.415 268.255 462.805C267.975 462.185 267.835 461.405 267.835 460.465C267.835 459.515 267.97 458.735 268.24 458.125C268.51 457.515 268.9 457.06 269.41 456.76C269.92 456.46 270.53 456.31 271.24 456.31C272 456.31 272.68 456.485 273.28 456.835C273.89 457.175 274.37 457.655 274.72 458.275C275.08 458.895 275.26 459.625 275.26 460.465C275.26 461.315 275.08 462.05 274.72 462.67C274.37 463.29 273.89 463.77 273.28 464.11C272.68 464.45 272 464.62 271.24 464.62ZM266.47 467.41V456.43H268.705V458.08L268.66 460.48L268.81 462.865V467.41H266.47ZM270.835 462.7C271.225 462.7 271.57 462.61 271.87 462.43C272.18 462.25 272.425 461.995 272.605 461.665C272.795 461.325 272.89 460.925 272.89 460.465C272.89 459.995 272.795 459.595 272.605 459.265C272.425 458.935 272.18 458.68 271.87 458.5C271.57 458.32 271.225 458.23 270.835 458.23C270.445 458.23 270.095 458.32 269.785 458.5C269.475 458.68 269.23 458.935 269.05 459.265C268.87 459.595 268.78 459.995 268.78 460.465C268.78 460.925 268.87 461.325 269.05 461.665C269.23 461.995 269.475 462.25 269.785 462.43C270.095 462.61 270.445 462.7 270.835 462.7ZM276.826 464.5V453.37H279.166V464.5H276.826ZM281.038 461.215V459.34H285.283V461.215H281.038ZM289.839 464.62C289.149 464.62 288.484 464.54 287.844 464.38C287.214 464.21 286.714 464 286.344 463.75L287.124 462.07C287.494 462.3 287.929 462.49 288.429 462.64C288.939 462.78 289.439 462.85 289.929 462.85C290.469 462.85 290.849 462.785 291.069 462.655C291.299 462.525 291.414 462.345 291.414 462.115C291.414 461.925 291.324 461.785 291.144 461.695C290.974 461.595 290.744 461.52 290.454 461.47C290.164 461.42 289.844 461.37 289.494 461.32C289.154 461.27 288.809 461.205 288.459 461.125C288.109 461.035 287.789 460.905 287.499 460.735C287.209 460.565 286.974 460.335 286.794 460.045C286.624 459.755 286.539 459.38 286.539 458.92C286.539 458.41 286.684 457.96 286.974 457.57C287.274 457.18 287.704 456.875 288.264 456.655C288.824 456.425 289.494 456.31 290.274 456.31C290.824 456.31 291.384 456.37 291.954 456.49C292.524 456.61 292.999 456.785 293.379 457.015L292.599 458.68C292.209 458.45 291.814 458.295 291.414 458.215C291.024 458.125 290.644 458.08 290.274 458.08C289.754 458.08 289.374 458.15 289.134 458.29C288.894 458.43 288.774 458.61 288.774 458.83C288.774 459.03 288.859 459.18 289.029 459.28C289.209 459.38 289.444 459.46 289.734 459.52C290.024 459.58 290.339 459.635 290.679 459.685C291.029 459.725 291.379 459.79 291.729 459.88C292.079 459.97 292.394 460.1 292.674 460.27C292.964 460.43 293.199 460.655 293.379 460.945C293.559 461.225 293.649 461.595 293.649 462.055C293.649 462.555 293.499 463 293.199 463.39C292.899 463.77 292.464 464.07 291.894 464.29C291.334 464.51 290.649 464.62 289.839 464.62ZM298.888 467.53C298.128 467.53 297.393 467.435 296.683 467.245C295.983 467.065 295.398 466.79 294.928 466.42L295.858 464.74C296.198 465.02 296.628 465.24 297.148 465.4C297.678 465.57 298.198 465.655 298.708 465.655C299.538 465.655 300.138 465.47 300.508 465.1C300.888 464.73 301.078 464.18 301.078 463.45V462.235L301.228 460.21L301.198 458.17V456.43H303.418V463.15C303.418 464.65 303.028 465.755 302.248 466.465C301.468 467.175 300.348 467.53 298.888 467.53ZM298.528 464.11C297.778 464.11 297.098 463.95 296.488 463.63C295.888 463.3 295.403 462.845 295.033 462.265C294.673 461.675 294.493 460.99 294.493 460.21C294.493 459.42 294.673 458.735 295.033 458.155C295.403 457.565 295.888 457.11 296.488 456.79C297.098 456.47 297.778 456.31 298.528 456.31C299.208 456.31 299.808 456.45 300.328 456.73C300.848 457 301.253 457.425 301.543 458.005C301.833 458.575 301.978 459.31 301.978 460.21C301.978 461.1 301.833 461.835 301.543 462.415C301.253 462.985 300.848 463.41 300.328 463.69C299.808 463.97 299.208 464.11 298.528 464.11ZM298.993 462.19C299.403 462.19 299.768 462.11 300.088 461.95C300.408 461.78 300.658 461.545 300.838 461.245C301.018 460.945 301.108 460.6 301.108 460.21C301.108 459.81 301.018 459.465 300.838 459.175C300.658 458.875 300.408 458.645 300.088 458.485C299.768 458.315 299.403 458.23 298.993 458.23C298.583 458.23 298.218 458.315 297.898 458.485C297.578 458.645 297.323 458.875 297.133 459.175C296.953 459.465 296.863 459.81 296.863 460.21C296.863 460.6 296.953 460.945 297.133 461.245C297.323 461.545 297.578 461.78 297.898 461.95C298.218 462.11 298.583 462.19 298.993 462.19ZM304.021 466L308.971 451.87H311.056L306.106 466H304.021Z" fill="#4A24AC"/>
<mask id="mask0_6_78" style="mask-type:alpha" maskUnits="userSpaceOnUse" x="480" y="447" width="24" height="24">
<rect x="480" y="447" width="24" height="24" fill="#D9D9D9"/>
</mask>
<g mask="url(#mask0_6_78)">
<path d="M498.692 465.5H488.308C487.803 465.5 487.375 465.325 487.025 464.975C486.675 464.625 486.5 464.197 486.5 463.692V450.308C486.5 449.803 486.675 449.375 487.025 449.025C487.375 448.675 487.803 448.5 488.308 448.5H495.25L500.5 453.75V463.692C500.5 464.197 500.325 464.625 499.975 464.975C499.625 465.325 499.197 465.5 498.692 465.5ZM494.5 454.5V450H488.308C488.231 450 488.16 450.032 488.096 450.096C488.032 450.16 488 450.231 488 450.308V463.692C488 463.769 488.032 463.84 488.096 463.904C488.16 463.968 488.231 464 488.308 464H498.692C498.769 464 498.84 463.968 498.904 463.904C498.968 463.84 499 463.769 499 463.692V454.5H494.5ZM484.308 469.5C483.803 469.5 483.375 469.325 483.025 468.975C482.675 468.625 482.5 468.197 482.5 467.692V454.5H484V467.692C484 467.769 484.032 467.84 484.096 467.904C484.16 467.968 484.231 468 484.308 468H494.5V469.5L484.308 469.5Z" fill="#676C80"/>
</g>
</g>
<defs>
<filter id="filter0_d_6_78" x="0" y="0" width="640" height="622" filterUnits="userSpaceOnUse" color-interpolation-filters="sRGB">
<feFlood flood-opacity="0" result="BackgroundImageFix"/>
<feColorMatrix in="SourceAlpha" type="matrix" values="0 0 0 0 0 0 0 0 0 0 0 0 0 0 0 0 0 0 127 0" result="hardAlpha"/>
<feOffset dy="15"/>
<feGaussianBlur stdDeviation="40"/>
<feColorMatrix type="matrix" values="0 0 0 0 0.133333 0 0 0 0 0.0109375 0 0 0 0 0.525 0 0 0 0.06 0"/>
<feBlend mode="normal" in2="BackgroundImageFix" result="effect1_dropShadow_6_78"/>
<feBlend mode="normal" in="SourceGraphic" in2="effect1_dropShadow_6_78" result="shape"/>
</filter>
<filter id="filter1_d_6_78" x="90" y="331" width="460" height="106" filterUnits="userSpaceOnUse" color-interpolation-filters="sRGB">
<feFlood flood-opacity="0" result="BackgroundImageFix"/>
<feColorMatrix in="SourceAlpha" type="matrix" values="0 0 0 0 0 0 0 0 0 0 0 0 0 0 0 0 0 0 127 0" result="hardAlpha"/>
<feOffset/>
<feGaussianBlur stdDeviation="15"/>
<feColorMatrix type="matrix" values="0 0 0 0 0.211765 0 0 0 0 0.235294 0 0 0 0 0.337255 0 0 0 0.07 0"/>
<feBlend mode="normal" in2="BackgroundImageFix" result="effect1_dropShadow_6_78"/>
<feBlend mode="normal" in="SourceGraphic" in2="effect1_dropShadow_6_78" result="shape"/>
</filter>
<clipPath id="clip0_6_78">
<rect width="400" height="46" fill="white" transform="translate(120 361)"/>
</clipPath>
<clipPath id="clip1_6_78">
<rect width="71" height="17" fill="white" transform="translate(284.5 375.5)"/>
</clipPath>
</defs>
</svg>
