<svg width="1280" height="832" viewBox="0 0 1280 832" fill="none" xmlns="http://www.w3.org/2000/svg">
<rect width="1280" height="832" fill="#FBFCFE"/>
<g filter="url(#filter0_d_6_76)">
<rect x="400" y="185" width="480" height="462" rx="30" fill="white"/>
<path d="M756.308 255.713H756.134C755.156 255.713 754.218 256.099 753.526 256.787C752.835 257.474 752.446 258.407 752.446 259.379C752.446 260.351 752.835 261.284 753.526 261.971C754.218 262.659 755.156 263.045 756.134 263.045H756.308C757.286 263.045 758.224 262.659 758.916 261.971C759.608 261.284 759.996 260.351 759.996 259.379C759.996 258.407 759.608 257.474 758.916 256.787C758.224 256.099 757.286 255.713 756.308 255.713ZM753.076 285.975H759.366V267.622H753.076V285.975ZM689.877 285.975H708.34V279.723H689.877V285.975ZM743.316 278.688V255.713H737.002V258.687C734.658 256.99 731.879 255.989 728.987 255.8C726.094 255.611 723.207 256.241 720.66 257.617C718.113 258.994 716.011 261.06 714.598 263.576C713.186 266.092 712.519 268.955 712.678 271.832C712.836 274.709 713.812 277.483 715.492 279.831C717.172 282.179 719.488 284.005 722.17 285.098C724.853 286.19 727.792 286.504 730.647 286.002C733.501 285.501 736.154 284.205 738.298 282.265C739.034 283.403 740.046 284.34 741.241 284.988C742.436 285.636 743.776 285.976 745.137 285.975H747.953V280.305H744.943C744.729 280.305 744.518 280.263 744.32 280.182C744.123 280.101 743.944 279.982 743.792 279.832C743.641 279.681 743.521 279.503 743.44 279.307C743.358 279.111 743.316 278.9 743.316 278.688ZM727.991 279.958C726.209 279.958 724.466 279.433 722.984 278.449C721.503 277.464 720.348 276.065 719.665 274.429C718.983 272.792 718.805 270.991 719.153 269.253C719.5 267.516 720.359 265.92 721.619 264.667C722.879 263.414 724.485 262.561 726.233 262.216C727.98 261.87 729.792 262.047 731.439 262.725C733.085 263.403 734.493 264.551 735.483 266.024C736.473 267.497 737.002 269.229 737.002 271.001C736.999 273.375 736.049 275.652 734.359 277.331C732.67 279.011 730.38 279.955 727.991 279.958V279.958ZM563.87 255.713C555.61 255.713 548.89 262.571 548.89 271.001C548.89 279.43 555.61 286.288 563.87 286.288C567.725 286.288 571.615 285.153 574.277 282.707L570.383 278.161C568.535 279.677 566.719 280.297 563.87 280.297C559.265 280.297 556.323 277.657 555.312 273.996L578.56 273.997C578.753 273.01 578.85 272.006 578.85 271.001C578.85 262.571 572.13 255.713 563.87 255.713ZM555.261 268.335C555.721 266.42 556.825 264.719 558.391 263.513C559.957 262.308 561.89 261.669 563.87 261.704C565.859 261.64 567.808 262.268 569.382 263.478C570.956 264.688 572.056 266.406 572.494 268.335H555.261ZM542.499 277.229H542.497C541.228 278.54 539.588 279.437 537.795 279.802C536.002 280.166 534.139 279.98 532.454 279.269C530.769 278.558 529.341 277.356 528.359 275.82C527.377 274.285 526.888 272.489 526.955 270.671C527.019 268.923 527.596 267.233 528.613 265.806C529.63 264.38 531.044 263.279 532.681 262.64C534.318 262 536.107 261.85 537.83 262.207C539.552 262.563 541.131 263.412 542.375 264.649H542.376L546.841 260.211C544.685 258.068 541.936 256.611 538.944 256.027C535.952 255.443 532.853 255.757 530.042 256.931C527.231 258.104 524.835 260.083 523.16 262.615C521.484 265.147 520.605 268.117 520.634 271.148C520.664 274.178 521.6 277.131 523.325 279.631C525.049 282.13 527.483 284.063 530.316 285.182C533.15 286.301 536.254 286.556 539.234 285.915C542.214 285.273 544.934 283.764 547.048 281.58V281.58L542.499 277.229ZM691.204 255.713H687.149C684.882 255.734 682.682 256.477 680.873 257.835V255.721H674.559V285.975H680.873L680.873 267.822C680.877 266.108 681.564 264.466 682.784 263.255C684.004 262.045 685.658 261.365 687.382 261.365H691.204L691.204 255.713ZM624.098 276.234V267.789H630.759V262.128H624.098V255.713H617.784V275.462C617.784 276.843 618.057 278.21 618.589 279.485C619.12 280.761 619.899 281.92 620.881 282.896C621.864 283.872 623.03 284.647 624.313 285.175C625.596 285.703 626.971 285.975 628.36 285.975H634.149V280.277H628.166C627.632 280.277 627.103 280.173 626.609 279.97C626.116 279.766 625.667 279.468 625.289 279.093C624.912 278.717 624.612 278.272 624.408 277.781C624.203 277.291 624.098 276.765 624.098 276.234ZM597.531 255.723C594.934 255.738 592.415 256.601 590.36 258.179V255.713H584.044L584.046 285.975H590.36V268.522C590.357 267.585 590.541 266.656 590.9 265.789C591.259 264.922 591.787 264.133 592.453 263.469C593.119 262.805 593.911 262.279 594.782 261.919C595.653 261.56 596.587 261.375 597.531 261.375C598.474 261.375 599.408 261.56 600.279 261.919C601.151 262.279 601.942 262.805 602.608 263.469C603.274 264.133 603.802 264.922 604.161 265.789C604.52 266.656 604.704 267.585 604.701 268.522V285.975H611.016L611.015 269.084C610.999 265.538 609.572 262.142 607.046 259.638C604.519 257.135 601.098 255.728 597.531 255.723ZM652.862 255.713C644.602 255.713 637.882 262.571 637.882 271.001C637.882 279.43 644.602 286.288 652.862 286.288C656.717 286.288 660.607 285.153 663.268 282.707L659.375 278.161C657.527 279.677 655.711 280.297 652.862 280.297C648.256 280.297 645.315 277.657 644.304 273.996L667.551 273.997C667.745 273.01 667.842 272.006 667.842 271.001C667.842 262.571 661.122 255.713 652.862 255.713ZM644.252 268.335C644.713 266.42 645.817 264.719 647.383 263.513C648.949 262.308 650.881 261.669 652.862 261.704C654.851 261.64 656.8 262.268 658.374 263.478C659.948 264.688 661.048 266.406 661.486 268.335H644.252Z" fill="#4A24AC"/>
<path d="M593.908 371.22C592.705 371.22 591.554 371.051 590.454 370.714C589.354 370.362 588.481 369.915 587.836 369.372L588.826 367.15C589.442 367.634 590.205 368.037 591.114 368.36C592.023 368.683 592.955 368.844 593.908 368.844C594.715 368.844 595.367 368.756 595.866 368.58C596.365 368.404 596.731 368.169 596.966 367.876C597.201 367.568 597.318 367.223 597.318 366.842C597.318 366.373 597.149 365.999 596.812 365.72C596.475 365.427 596.035 365.199 595.492 365.038C594.964 364.862 594.37 364.701 593.71 364.554C593.065 364.407 592.412 364.239 591.752 364.048C591.107 363.843 590.513 363.586 589.97 363.278C589.442 362.955 589.009 362.53 588.672 362.002C588.335 361.474 588.166 360.799 588.166 359.978C588.166 359.142 588.386 358.379 588.826 357.69C589.281 356.986 589.963 356.429 590.872 356.018C591.796 355.593 592.962 355.38 594.37 355.38C595.294 355.38 596.211 355.497 597.12 355.732C598.029 355.967 598.821 356.304 599.496 356.744L598.594 358.966C597.905 358.555 597.193 358.255 596.46 358.064C595.727 357.859 595.023 357.756 594.348 357.756C593.556 357.756 592.911 357.851 592.412 358.042C591.928 358.233 591.569 358.482 591.334 358.79C591.114 359.098 591.004 359.45 591.004 359.846C591.004 360.315 591.165 360.697 591.488 360.99C591.825 361.269 592.258 361.489 592.786 361.65C593.329 361.811 593.93 361.973 594.59 362.134C595.25 362.281 595.903 362.449 596.548 362.64C597.208 362.831 597.802 363.08 598.33 363.388C598.873 363.696 599.305 364.114 599.628 364.642C599.965 365.17 600.134 365.837 600.134 366.644C600.134 367.465 599.907 368.228 599.452 368.932C599.012 369.621 598.33 370.179 597.406 370.604C596.482 371.015 595.316 371.22 593.908 371.22ZM608.932 359.12C609.871 359.12 610.707 359.303 611.44 359.67C612.188 360.037 612.775 360.601 613.2 361.364C613.625 362.112 613.838 363.08 613.838 364.268V371H611.088V364.62C611.088 363.579 610.839 362.801 610.34 362.288C609.856 361.775 609.174 361.518 608.294 361.518C607.649 361.518 607.077 361.65 606.578 361.914C606.079 362.178 605.691 362.574 605.412 363.102C605.148 363.615 605.016 364.268 605.016 365.06V371H602.266V354.676H605.016V362.42L604.422 361.452C604.833 360.704 605.427 360.132 606.204 359.736C606.996 359.325 607.905 359.12 608.932 359.12ZM622.188 371.154C620.985 371.154 619.915 370.897 618.976 370.384C618.037 369.856 617.297 369.137 616.754 368.228C616.211 367.319 615.94 366.285 615.94 365.126C615.94 363.953 616.211 362.919 616.754 362.024C617.297 361.115 618.037 360.403 618.976 359.89C619.915 359.377 620.985 359.12 622.188 359.12C623.405 359.12 624.483 359.377 625.422 359.89C626.375 360.403 627.116 361.107 627.644 362.002C628.187 362.897 628.458 363.938 628.458 365.126C628.458 366.285 628.187 367.319 627.644 368.228C627.116 369.137 626.375 369.856 625.422 370.384C624.483 370.897 623.405 371.154 622.188 371.154ZM622.188 368.8C622.863 368.8 623.464 368.653 623.992 368.36C624.52 368.067 624.931 367.641 625.224 367.084C625.532 366.527 625.686 365.874 625.686 365.126C625.686 364.363 625.532 363.711 625.224 363.168C624.931 362.611 624.52 362.185 623.992 361.892C623.464 361.599 622.87 361.452 622.21 361.452C621.535 361.452 620.934 361.599 620.406 361.892C619.893 362.185 619.482 362.611 619.174 363.168C618.866 363.711 618.712 364.363 618.712 365.126C618.712 365.874 618.866 366.527 619.174 367.084C619.482 367.641 619.893 368.067 620.406 368.36C620.934 368.653 621.528 368.8 622.188 368.8ZM630.648 371V359.252H633.266V362.486L632.958 361.54C633.31 360.748 633.86 360.147 634.608 359.736C635.37 359.325 636.316 359.12 637.446 359.12V361.738C637.328 361.709 637.218 361.694 637.116 361.694C637.013 361.679 636.91 361.672 636.808 361.672C635.766 361.672 634.938 361.98 634.322 362.596C633.706 363.197 633.398 364.099 633.398 365.302V371H630.648ZM644.19 371.154C642.899 371.154 641.902 370.824 641.198 370.164C640.494 369.489 640.142 368.499 640.142 367.194V356.656H642.892V367.128C642.892 367.685 643.031 368.118 643.31 368.426C643.603 368.734 644.007 368.888 644.52 368.888C645.136 368.888 645.649 368.727 646.06 368.404L646.83 370.362C646.507 370.626 646.111 370.824 645.642 370.956C645.173 371.088 644.689 371.154 644.19 371.154ZM638.206 361.54V359.34H646.038V361.54H638.206ZM654.292 371V354.676H657.042V371H654.292ZM660.212 371V359.252H662.962V371H660.212ZM661.598 357.316C661.084 357.316 660.659 357.155 660.322 356.832C659.999 356.509 659.838 356.121 659.838 355.666C659.838 355.197 659.999 354.808 660.322 354.5C660.659 354.177 661.084 354.016 661.598 354.016C662.111 354.016 662.529 354.17 662.852 354.478C663.189 354.771 663.358 355.145 663.358 355.6C663.358 356.084 663.196 356.495 662.874 356.832C662.551 357.155 662.126 357.316 661.598 357.316ZM672.797 359.12C673.736 359.12 674.572 359.303 675.305 359.67C676.053 360.037 676.64 360.601 677.065 361.364C677.491 362.112 677.703 363.08 677.703 364.268V371H674.953V364.62C674.953 363.579 674.704 362.801 674.205 362.288C673.721 361.775 673.039 361.518 672.159 361.518C671.514 361.518 670.942 361.65 670.443 361.914C669.945 362.178 669.556 362.574 669.277 363.102C669.013 363.615 668.881 364.268 668.881 365.06V371H666.131V359.252H668.749V362.42L668.287 361.452C668.698 360.704 669.292 360.132 670.069 359.736C670.861 359.325 671.771 359.12 672.797 359.12ZM682.996 368.382L683.062 364.928L689.2 359.252H692.5L687.286 364.488L685.834 365.698L682.996 368.382ZM680.752 371V354.676H683.502V371H680.752ZM689.618 371L685.328 365.698L687.066 363.498L692.962 371H689.618Z" fill="#363C56"/>
<rect opacity="0.8" x="440" y="456" width="400" height="1" fill="#4A24AC"/>
<path d="M445.236 433.51C445.843 433.51 446.375 433.627 446.832 433.86C447.299 434.093 447.663 434.448 447.924 434.924C448.185 435.4 448.316 436.002 448.316 436.73V441H446.972V436.884C446.972 436.165 446.795 435.624 446.44 435.26C446.095 434.896 445.605 434.714 444.97 434.714C444.494 434.714 444.079 434.807 443.724 434.994C443.369 435.181 443.094 435.456 442.898 435.82C442.711 436.184 442.618 436.637 442.618 437.178V441H441.274V430.612H442.618V435.582L442.352 435.05C442.595 434.565 442.968 434.187 443.472 433.916C443.976 433.645 444.564 433.51 445.236 433.51ZM453.351 441.084C452.605 441.084 452.026 440.883 451.615 440.482C451.205 440.081 450.999 439.507 450.999 438.76V431.956H452.343V438.704C452.343 439.105 452.441 439.413 452.637 439.628C452.843 439.843 453.132 439.95 453.505 439.95C453.925 439.95 454.275 439.833 454.555 439.6L454.975 440.566C454.77 440.743 454.523 440.874 454.233 440.958C453.953 441.042 453.659 441.084 453.351 441.084ZM449.739 434.686V433.58H454.471V434.686H449.739ZM458.97 441.084C458.224 441.084 457.645 440.883 457.234 440.482C456.824 440.081 456.618 439.507 456.618 438.76V431.956H457.962V438.704C457.962 439.105 458.06 439.413 458.256 439.628C458.462 439.843 458.751 439.95 459.124 439.95C459.544 439.95 459.894 439.833 460.174 439.6L460.594 440.566C460.389 440.743 460.142 440.874 459.852 440.958C459.572 441.042 459.278 441.084 458.97 441.084ZM455.358 434.686V433.58H460.09V434.686H455.358ZM466.153 441.084C465.537 441.084 464.973 440.944 464.459 440.664C463.955 440.375 463.549 439.95 463.241 439.39C462.943 438.83 462.793 438.13 462.793 437.29C462.793 436.45 462.938 435.75 463.227 435.19C463.526 434.63 463.927 434.21 464.431 433.93C464.945 433.65 465.519 433.51 466.153 433.51C466.881 433.51 467.525 433.669 468.085 433.986C468.645 434.303 469.089 434.747 469.415 435.316C469.742 435.876 469.905 436.534 469.905 437.29C469.905 438.046 469.742 438.709 469.415 439.278C469.089 439.847 468.645 440.291 468.085 440.608C467.525 440.925 466.881 441.084 466.153 441.084ZM462.219 443.716V433.58H463.507V435.582L463.423 437.304L463.563 439.026V443.716H462.219ZM466.041 439.908C466.517 439.908 466.942 439.801 467.315 439.586C467.698 439.371 467.997 439.068 468.211 438.676C468.435 438.275 468.547 437.813 468.547 437.29C468.547 436.758 468.435 436.301 468.211 435.918C467.997 435.526 467.698 435.223 467.315 435.008C466.942 434.793 466.517 434.686 466.041 434.686C465.575 434.686 465.15 434.793 464.767 435.008C464.394 435.223 464.095 435.526 463.871 435.918C463.657 436.301 463.549 436.758 463.549 437.29C463.549 437.813 463.657 438.275 463.871 438.676C464.095 439.068 464.394 439.371 464.767 439.586C465.15 439.801 465.575 439.908 466.041 439.908ZM473.89 441.084C473.274 441.084 472.686 441 472.126 440.832C471.576 440.664 471.142 440.459 470.824 440.216L471.384 439.152C471.702 439.367 472.094 439.549 472.56 439.698C473.027 439.847 473.503 439.922 473.988 439.922C474.614 439.922 475.062 439.833 475.332 439.656C475.612 439.479 475.752 439.231 475.752 438.914C475.752 438.681 475.668 438.499 475.5 438.368C475.332 438.237 475.108 438.139 474.828 438.074C474.558 438.009 474.254 437.953 473.918 437.906C473.582 437.85 473.246 437.785 472.91 437.71C472.574 437.626 472.266 437.514 471.986 437.374C471.706 437.225 471.482 437.024 471.314 436.772C471.146 436.511 471.062 436.165 471.062 435.736C471.062 435.288 471.188 434.896 471.44 434.56C471.692 434.224 472.047 433.967 472.504 433.79C472.971 433.603 473.522 433.51 474.156 433.51C474.642 433.51 475.132 433.571 475.626 433.692C476.13 433.804 476.541 433.967 476.858 434.182L476.284 435.246C475.948 435.022 475.598 434.868 475.234 434.784C474.87 434.7 474.506 434.658 474.142 434.658C473.554 434.658 473.116 434.756 472.826 434.952C472.537 435.139 472.392 435.381 472.392 435.68C472.392 435.932 472.476 436.128 472.644 436.268C472.822 436.399 473.046 436.501 473.316 436.576C473.596 436.651 473.904 436.716 474.24 436.772C474.576 436.819 474.912 436.884 475.248 436.968C475.584 437.043 475.888 437.15 476.158 437.29C476.438 437.43 476.662 437.626 476.83 437.878C477.008 438.13 477.096 438.466 477.096 438.886C477.096 439.334 476.966 439.721 476.704 440.048C476.443 440.375 476.074 440.631 475.598 440.818C475.122 440.995 474.553 441.084 473.89 441.084ZM479.098 435.428C478.837 435.428 478.613 435.339 478.426 435.162C478.239 434.975 478.146 434.742 478.146 434.462C478.146 434.182 478.239 433.953 478.426 433.776C478.613 433.599 478.837 433.51 479.098 433.51C479.35 433.51 479.565 433.599 479.742 433.776C479.929 433.953 480.022 434.182 480.022 434.462C480.022 434.742 479.929 434.975 479.742 435.162C479.565 435.339 479.35 435.428 479.098 435.428ZM479.098 441.084C478.837 441.084 478.613 440.995 478.426 440.818C478.239 440.631 478.146 440.398 478.146 440.118C478.146 439.838 478.239 439.609 478.426 439.432C478.613 439.255 478.837 439.166 479.098 439.166C479.35 439.166 479.565 439.255 479.742 439.432C479.929 439.609 480.022 439.838 480.022 440.118C480.022 440.398 479.929 440.631 479.742 440.818C479.565 440.995 479.35 441.084 479.098 441.084ZM480.952 442.4L485.572 429.212H486.79L482.17 442.4H480.952ZM484.93 442.4L489.55 429.212H490.768L486.148 442.4H484.93ZM493.809 441.084C493.053 441.084 492.376 440.921 491.779 440.594C491.191 440.267 490.729 439.819 490.393 439.25C490.057 438.681 489.889 438.027 489.889 437.29C489.889 436.553 490.057 435.899 490.393 435.33C490.729 434.761 491.191 434.317 491.779 434C492.376 433.673 493.053 433.51 493.809 433.51C494.481 433.51 495.078 433.645 495.601 433.916C496.133 434.177 496.543 434.569 496.833 435.092L495.811 435.75C495.568 435.386 495.269 435.12 494.915 434.952C494.569 434.775 494.196 434.686 493.795 434.686C493.309 434.686 492.875 434.793 492.493 435.008C492.11 435.223 491.807 435.526 491.583 435.918C491.359 436.301 491.247 436.758 491.247 437.29C491.247 437.822 491.359 438.284 491.583 438.676C491.807 439.068 492.11 439.371 492.493 439.586C492.875 439.801 493.309 439.908 493.795 439.908C494.196 439.908 494.569 439.824 494.915 439.656C495.269 439.479 495.568 439.208 495.811 438.844L496.833 439.488C496.543 440.001 496.133 440.398 495.601 440.678C495.078 440.949 494.481 441.084 493.809 441.084ZM501.767 441.084C500.974 441.084 500.274 440.921 499.667 440.594C499.07 440.267 498.603 439.819 498.267 439.25C497.941 438.681 497.777 438.027 497.777 437.29C497.777 436.553 497.936 435.899 498.253 435.33C498.58 434.761 499.023 434.317 499.583 434C500.153 433.673 500.792 433.51 501.501 433.51C502.22 433.51 502.855 433.669 503.405 433.986C503.956 434.303 504.385 434.751 504.693 435.33C505.011 435.899 505.169 436.567 505.169 437.332C505.169 437.388 505.165 437.453 505.155 437.528C505.155 437.603 505.151 437.673 505.141 437.738H498.827V436.772H504.441L503.895 437.108C503.905 436.632 503.807 436.207 503.601 435.834C503.396 435.461 503.111 435.171 502.747 434.966C502.393 434.751 501.977 434.644 501.501 434.644C501.035 434.644 500.619 434.751 500.255 434.966C499.891 435.171 499.607 435.465 499.401 435.848C499.196 436.221 499.093 436.651 499.093 437.136V437.36C499.093 437.855 499.205 438.298 499.429 438.69C499.663 439.073 499.985 439.371 500.395 439.586C500.806 439.801 501.277 439.908 501.809 439.908C502.248 439.908 502.645 439.833 502.999 439.684C503.363 439.535 503.681 439.311 503.951 439.012L504.693 439.88C504.357 440.272 503.937 440.571 503.433 440.776C502.939 440.981 502.383 441.084 501.767 441.084ZM510.998 433.51C511.604 433.51 512.136 433.627 512.594 433.86C513.06 434.093 513.424 434.448 513.686 434.924C513.947 435.4 514.078 436.002 514.078 436.73V441H512.734V436.884C512.734 436.165 512.556 435.624 512.202 435.26C511.856 434.896 511.366 434.714 510.732 434.714C510.256 434.714 509.84 434.807 509.486 434.994C509.131 435.181 508.856 435.456 508.66 435.82C508.473 436.184 508.38 436.637 508.38 437.178V441H507.036V433.58H508.324V435.582L508.114 435.05C508.356 434.565 508.73 434.187 509.234 433.916C509.738 433.645 510.326 433.51 510.998 433.51ZM519.113 441.084C518.366 441.084 517.788 440.883 517.377 440.482C516.966 440.081 516.761 439.507 516.761 438.76V431.956H518.105V438.704C518.105 439.105 518.203 439.413 518.399 439.628C518.604 439.843 518.894 439.95 519.267 439.95C519.687 439.95 520.037 439.833 520.317 439.6L520.737 440.566C520.532 440.743 520.284 440.874 519.995 440.958C519.715 441.042 519.421 441.084 519.113 441.084ZM515.501 434.686V433.58H520.233V434.686H515.501ZM525.42 441.084C524.626 441.084 523.926 440.921 523.32 440.594C522.722 440.267 522.256 439.819 521.92 439.25C521.593 438.681 521.43 438.027 521.43 437.29C521.43 436.553 521.588 435.899 521.906 435.33C522.232 434.761 522.676 434.317 523.236 434C523.805 433.673 524.444 433.51 525.154 433.51C525.872 433.51 526.507 433.669 527.058 433.986C527.608 434.303 528.038 434.751 528.346 435.33C528.663 435.899 528.822 436.567 528.822 437.332C528.822 437.388 528.817 437.453 528.808 437.528C528.808 437.603 528.803 437.673 528.794 437.738H522.48V436.772H528.094L527.548 437.108C527.557 436.632 527.459 436.207 527.254 435.834C527.048 435.461 526.764 435.171 526.4 434.966C526.045 434.751 525.63 434.644 525.154 434.644C524.687 434.644 524.272 434.751 523.908 434.966C523.544 435.171 523.259 435.465 523.054 435.848C522.848 436.221 522.746 436.651 522.746 437.136V437.36C522.746 437.855 522.858 438.298 523.082 438.69C523.315 439.073 523.637 439.371 524.048 439.586C524.458 439.801 524.93 439.908 525.462 439.908C525.9 439.908 526.297 439.833 526.652 439.684C527.016 439.535 527.333 439.311 527.604 439.012L528.346 439.88C528.01 440.272 527.59 440.571 527.086 440.776C526.591 440.981 526.036 441.084 525.42 441.084ZM530.688 441V433.58H531.976V435.596L531.85 435.092C532.055 434.579 532.401 434.187 532.886 433.916C533.371 433.645 533.969 433.51 534.678 433.51V434.812C534.622 434.803 534.566 434.798 534.51 434.798C534.463 434.798 534.417 434.798 534.37 434.798C533.651 434.798 533.082 435.013 532.662 435.442C532.242 435.871 532.032 436.492 532.032 437.304V441H530.688ZM536.616 441.084C536.354 441.084 536.13 440.995 535.944 440.818C535.757 440.631 535.664 440.398 535.664 440.118C535.664 439.838 535.757 439.609 535.944 439.432C536.13 439.255 536.354 439.166 536.616 439.166C536.868 439.166 537.082 439.255 537.26 439.432C537.446 439.609 537.54 439.838 537.54 440.118C537.54 440.398 537.446 440.631 537.26 440.818C537.082 440.995 536.868 441.084 536.616 441.084ZM544.208 441V439.432L544.138 439.138V436.464C544.138 435.895 543.97 435.456 543.634 435.148C543.307 434.831 542.813 434.672 542.15 434.672C541.711 434.672 541.282 434.747 540.862 434.896C540.442 435.036 540.087 435.227 539.798 435.47L539.238 434.462C539.621 434.154 540.078 433.921 540.61 433.762C541.151 433.594 541.716 433.51 542.304 433.51C543.321 433.51 544.105 433.757 544.656 434.252C545.207 434.747 545.482 435.503 545.482 436.52V441H544.208ZM541.772 441.084C541.221 441.084 540.736 440.991 540.316 440.804C539.905 440.617 539.588 440.361 539.364 440.034C539.14 439.698 539.028 439.32 539.028 438.9C539.028 438.499 539.121 438.135 539.308 437.808C539.504 437.481 539.817 437.22 540.246 437.024C540.685 436.828 541.273 436.73 542.01 436.73H544.362V437.696H542.066C541.394 437.696 540.941 437.808 540.708 438.032C540.475 438.256 540.358 438.527 540.358 438.844C540.358 439.208 540.503 439.502 540.792 439.726C541.081 439.941 541.483 440.048 541.996 440.048C542.5 440.048 542.939 439.936 543.312 439.712C543.695 439.488 543.97 439.161 544.138 438.732L544.404 439.656C544.227 440.095 543.914 440.445 543.466 440.706C543.018 440.958 542.453 441.084 541.772 441.084ZM547.969 441V433.58H549.313V441H547.969ZM548.641 432.152C548.38 432.152 548.161 432.068 547.983 431.9C547.815 431.732 547.731 431.527 547.731 431.284C547.731 431.032 547.815 430.822 547.983 430.654C548.161 430.486 548.38 430.402 548.641 430.402C548.903 430.402 549.117 430.486 549.285 430.654C549.463 430.813 549.551 431.013 549.551 431.256C549.551 431.508 549.467 431.723 549.299 431.9C549.131 432.068 548.912 432.152 548.641 432.152ZM550.213 442.4L554.833 429.212H556.051L551.431 442.4H550.213ZM559.792 441.084C559.176 441.084 558.611 440.944 558.098 440.664C557.594 440.375 557.188 439.95 556.88 439.39C556.581 438.83 556.432 438.13 556.432 437.29C556.432 436.45 556.577 435.75 556.866 435.19C557.165 434.63 557.566 434.21 558.07 433.93C558.583 433.65 559.157 433.51 559.792 433.51C560.52 433.51 561.164 433.669 561.724 433.986C562.284 434.303 562.727 434.747 563.054 435.316C563.381 435.876 563.544 436.534 563.544 437.29C563.544 438.046 563.381 438.709 563.054 439.278C562.727 439.847 562.284 440.291 561.724 440.608C561.164 440.925 560.52 441.084 559.792 441.084ZM555.858 443.716V433.58H557.146V435.582L557.062 437.304L557.202 439.026V443.716H555.858ZM559.68 439.908C560.156 439.908 560.581 439.801 560.954 439.586C561.337 439.371 561.635 439.068 561.85 438.676C562.074 438.275 562.186 437.813 562.186 437.29C562.186 436.758 562.074 436.301 561.85 435.918C561.635 435.526 561.337 435.223 560.954 435.008C560.581 434.793 560.156 434.686 559.68 434.686C559.213 434.686 558.789 434.793 558.406 435.008C558.033 435.223 557.734 435.526 557.51 435.918C557.295 436.301 557.188 436.758 557.188 437.29C557.188 437.813 557.295 438.275 557.51 438.676C557.734 439.068 558.033 439.371 558.406 439.586C558.789 439.801 559.213 439.908 559.68 439.908ZM565.401 441V430.612H566.745V441H565.401ZM567.645 442.4L572.265 429.212H573.483L568.863 442.4H567.645ZM575.418 441.084C574.802 441.084 574.214 441 573.654 440.832C573.103 440.664 572.669 440.459 572.352 440.216L572.912 439.152C573.229 439.367 573.621 439.549 574.088 439.698C574.554 439.847 575.03 439.922 575.516 439.922C576.141 439.922 576.589 439.833 576.86 439.656C577.14 439.479 577.28 439.231 577.28 438.914C577.28 438.681 577.196 438.499 577.028 438.368C576.86 438.237 576.636 438.139 576.356 438.074C576.085 438.009 575.782 437.953 575.446 437.906C575.11 437.85 574.774 437.785 574.438 437.71C574.102 437.626 573.794 437.514 573.514 437.374C573.234 437.225 573.01 437.024 572.842 436.772C572.674 436.511 572.59 436.165 572.59 435.736C572.59 435.288 572.716 434.896 572.968 434.56C573.22 434.224 573.574 433.967 574.032 433.79C574.498 433.603 575.049 433.51 575.684 433.51C576.169 433.51 576.659 433.571 577.154 433.692C577.658 433.804 578.068 433.967 578.386 434.182L577.812 435.246C577.476 435.022 577.126 434.868 576.762 434.784C576.398 434.7 576.034 434.658 575.67 434.658C575.082 434.658 574.643 434.756 574.354 434.952C574.064 435.139 573.92 435.381 573.92 435.68C573.92 435.932 574.004 436.128 574.172 436.268C574.349 436.399 574.573 436.501 574.844 436.576C575.124 436.651 575.432 436.716 575.768 436.772C576.104 436.819 576.44 436.884 576.776 436.968C577.112 437.043 577.415 437.15 577.686 437.29C577.966 437.43 578.19 437.626 578.358 437.878C578.535 438.13 578.624 438.466 578.624 438.886C578.624 439.334 578.493 439.721 578.232 440.048C577.97 440.375 577.602 440.631 577.126 440.818C576.65 440.995 576.08 441.084 575.418 441.084ZM582.851 441.084C582.105 441.084 581.526 440.883 581.115 440.482C580.705 440.081 580.499 439.507 580.499 438.76V431.956H581.843V438.704C581.843 439.105 581.941 439.413 582.137 439.628C582.343 439.843 582.632 439.95 583.005 439.95C583.425 439.95 583.775 439.833 584.055 439.6L584.475 440.566C584.27 440.743 584.023 440.874 583.733 440.958C583.453 441.042 583.159 441.084 582.851 441.084ZM579.239 434.686V433.58H583.971V434.686H579.239ZM586.1 441V433.58H587.388V435.596L587.262 435.092C587.468 434.579 587.813 434.187 588.298 433.916C588.784 433.645 589.381 433.51 590.09 433.51V434.812C590.034 434.803 589.978 434.798 589.922 434.798C589.876 434.798 589.829 434.798 589.782 434.798C589.064 434.798 588.494 435.013 588.074 435.442C587.654 435.871 587.444 436.492 587.444 437.304V441H586.1ZM594.856 441.084C594.11 441.084 593.447 440.921 592.868 440.594C592.29 440.267 591.832 439.819 591.496 439.25C591.16 438.671 590.992 438.018 590.992 437.29C590.992 436.553 591.16 435.899 591.496 435.33C591.832 434.761 592.29 434.317 592.868 434C593.447 433.673 594.11 433.51 594.856 433.51C595.594 433.51 596.252 433.673 596.83 434C597.418 434.317 597.876 434.761 598.202 435.33C598.538 435.89 598.706 436.543 598.706 437.29C598.706 438.027 598.538 438.681 598.202 439.25C597.876 439.819 597.418 440.267 596.83 440.594C596.252 440.921 595.594 441.084 594.856 441.084ZM594.856 439.908C595.332 439.908 595.757 439.801 596.13 439.586C596.513 439.371 596.812 439.068 597.026 438.676C597.241 438.275 597.348 437.813 597.348 437.29C597.348 436.758 597.241 436.301 597.026 435.918C596.812 435.526 596.513 435.223 596.13 435.008C595.757 434.793 595.332 434.686 594.856 434.686C594.38 434.686 593.956 434.793 593.582 435.008C593.209 435.223 592.91 435.526 592.686 435.918C592.462 436.301 592.35 436.758 592.35 437.29C592.35 437.813 592.462 438.275 592.686 438.676C592.91 439.068 593.209 439.371 593.582 439.586C593.956 439.801 594.38 439.908 594.856 439.908ZM604.527 433.51C605.134 433.51 605.666 433.627 606.123 433.86C606.59 434.093 606.954 434.448 607.215 434.924C607.476 435.4 607.607 436.002 607.607 436.73V441H606.263V436.884C606.263 436.165 606.086 435.624 605.731 435.26C605.386 434.896 604.896 434.714 604.261 434.714C603.785 434.714 603.37 434.807 603.015 434.994C602.66 435.181 602.385 435.456 602.189 435.82C602.002 436.184 601.909 436.637 601.909 437.178V441H600.565V433.58H601.853V435.582L601.643 435.05C601.886 434.565 602.259 434.187 602.763 433.916C603.267 433.645 603.855 433.51 604.527 433.51ZM614.7 441V439.432L614.63 439.138V436.464C614.63 435.895 614.462 435.456 614.126 435.148C613.8 434.831 613.305 434.672 612.642 434.672C612.204 434.672 611.774 434.747 611.354 434.896C610.934 435.036 610.58 435.227 610.29 435.47L609.73 434.462C610.113 434.154 610.57 433.921 611.102 433.762C611.644 433.594 612.208 433.51 612.796 433.51C613.814 433.51 614.598 433.757 615.148 434.252C615.699 434.747 615.974 435.503 615.974 436.52V441H614.7ZM612.264 441.084C611.714 441.084 611.228 440.991 610.808 440.804C610.398 440.617 610.08 440.361 609.856 440.034C609.632 439.698 609.52 439.32 609.52 438.9C609.52 438.499 609.614 438.135 609.8 437.808C609.996 437.481 610.309 437.22 610.738 437.024C611.177 436.828 611.765 436.73 612.502 436.73H614.854V437.696H612.558C611.886 437.696 611.434 437.808 611.2 438.032C610.967 438.256 610.85 438.527 610.85 438.844C610.85 439.208 610.995 439.502 611.284 439.726C611.574 439.941 611.975 440.048 612.488 440.048C612.992 440.048 613.431 439.936 613.804 439.712C614.187 439.488 614.462 439.161 614.63 438.732L614.896 439.656C614.719 440.095 614.406 440.445 613.958 440.706C613.51 440.958 612.946 441.084 612.264 441.084ZM617.986 437.738V436.576H621.752V437.738H617.986ZM627.206 443.8C626.524 443.8 625.862 443.702 625.218 443.506C624.583 443.319 624.065 443.049 623.664 442.694L624.308 441.658C624.653 441.957 625.078 442.19 625.582 442.358C626.086 442.535 626.613 442.624 627.164 442.624C628.041 442.624 628.685 442.419 629.096 442.008C629.506 441.597 629.712 440.972 629.712 440.132V438.564L629.852 437.094L629.782 435.61V433.58H631.056V439.992C631.056 441.299 630.729 442.26 630.076 442.876C629.422 443.492 628.466 443.8 627.206 443.8ZM627.038 440.692C626.319 440.692 625.675 440.543 625.106 440.244C624.546 439.936 624.098 439.511 623.762 438.97C623.435 438.429 623.272 437.803 623.272 437.094C623.272 436.375 623.435 435.75 623.762 435.218C624.098 434.677 624.546 434.257 625.106 433.958C625.675 433.659 626.319 433.51 627.038 433.51C627.672 433.51 628.251 433.641 628.774 433.902C629.296 434.154 629.712 434.546 630.02 435.078C630.337 435.61 630.496 436.282 630.496 437.094C630.496 437.897 630.337 438.564 630.02 439.096C629.712 439.628 629.296 440.029 628.774 440.3C628.251 440.561 627.672 440.692 627.038 440.692ZM627.192 439.516C627.686 439.516 628.125 439.413 628.508 439.208C628.89 439.003 629.189 438.718 629.404 438.354C629.628 437.99 629.74 437.57 629.74 437.094C629.74 436.618 629.628 436.198 629.404 435.834C629.189 435.47 628.89 435.19 628.508 434.994C628.125 434.789 627.686 434.686 627.192 434.686C626.697 434.686 626.254 434.789 625.862 434.994C625.479 435.19 625.176 435.47 624.952 435.834C624.737 436.198 624.63 436.618 624.63 437.094C624.63 437.57 624.737 437.99 624.952 438.354C625.176 438.718 625.479 439.003 625.862 439.208C626.254 439.413 626.697 439.516 627.192 439.516ZM633.624 441V430.612H634.968V441H633.624ZM640.712 441.084C639.965 441.084 639.302 440.921 638.724 440.594C638.145 440.267 637.688 439.819 637.352 439.25C637.016 438.671 636.848 438.018 636.848 437.29C636.848 436.553 637.016 435.899 637.352 435.33C637.688 434.761 638.145 434.317 638.724 434C639.302 433.673 639.965 433.51 640.712 433.51C641.449 433.51 642.107 433.673 642.686 434C643.274 434.317 643.731 434.761 644.058 435.33C644.394 435.89 644.562 436.543 644.562 437.29C644.562 438.027 644.394 438.681 644.058 439.25C643.731 439.819 643.274 440.267 642.686 440.594C642.107 440.921 641.449 441.084 640.712 441.084ZM640.712 439.908C641.188 439.908 641.612 439.801 641.986 439.586C642.368 439.371 642.667 439.068 642.882 438.676C643.096 438.275 643.204 437.813 643.204 437.29C643.204 436.758 643.096 436.301 642.882 435.918C642.667 435.526 642.368 435.223 641.986 435.008C641.612 434.793 641.188 434.686 640.712 434.686C640.236 434.686 639.811 434.793 639.438 435.008C639.064 435.223 638.766 435.526 638.542 435.918C638.318 436.301 638.206 436.758 638.206 437.29C638.206 437.813 638.318 438.275 638.542 438.676C638.766 439.068 639.064 439.371 639.438 439.586C639.811 439.801 640.236 439.908 640.712 439.908ZM647.783 441L645.025 433.58H646.299L648.749 440.3H648.147L650.695 433.58H651.829L654.321 440.3H653.733L656.239 433.58H657.443L654.671 441H653.383L651.045 434.868H651.437L649.071 441H647.783ZM662.769 433.51C663.376 433.51 663.908 433.627 664.365 433.86C664.832 434.093 665.196 434.448 665.457 434.924C665.719 435.4 665.849 436.002 665.849 436.73V441H664.505V436.884C664.505 436.165 664.328 435.624 663.973 435.26C663.628 434.896 663.138 434.714 662.503 434.714C662.027 434.714 661.612 434.807 661.257 434.994C660.903 435.181 660.627 435.456 660.431 435.82C660.245 436.184 660.151 436.637 660.151 437.178V441H658.807V433.58H660.095V435.582L659.885 435.05C660.128 434.565 660.501 434.187 661.005 433.916C661.509 433.645 662.097 433.51 662.769 433.51ZM672.943 441V439.432L672.873 439.138V436.464C672.873 435.895 672.705 435.456 672.369 435.148C672.042 434.831 671.547 434.672 670.885 434.672C670.446 434.672 670.017 434.747 669.597 434.896C669.177 435.036 668.822 435.227 668.533 435.47L667.973 434.462C668.355 434.154 668.813 433.921 669.345 433.762C669.886 433.594 670.451 433.51 671.039 433.51C672.056 433.51 672.84 433.757 673.391 434.252C673.941 434.747 674.217 435.503 674.217 436.52V441H672.943ZM670.507 441.084C669.956 441.084 669.471 440.991 669.051 440.804C668.64 440.617 668.323 440.361 668.099 440.034C667.875 439.698 667.763 439.32 667.763 438.9C667.763 438.499 667.856 438.135 668.043 437.808C668.239 437.481 668.551 437.22 668.981 437.024C669.419 436.828 670.007 436.73 670.745 436.73H673.097V437.696H670.801C670.129 437.696 669.676 437.808 669.443 438.032C669.209 438.256 669.093 438.527 669.093 438.844C669.093 439.208 669.237 439.502 669.527 439.726C669.816 439.941 670.217 440.048 670.731 440.048C671.235 440.048 671.673 439.936 672.047 439.712C672.429 439.488 672.705 439.161 672.873 438.732L673.139 439.656C672.961 440.095 672.649 440.445 672.201 440.706C671.753 440.958 671.188 441.084 670.507 441.084ZM675.038 442.4L679.658 429.212H680.876L676.256 442.4H675.038Z" fill="#363C56"/>
<path d="M441.368 415V406.6H442.256V414.232H446.96V415H441.368ZM448.254 415V408.7H449.106V415H448.254ZM448.686 407.308C448.51 407.308 448.362 407.248 448.242 407.128C448.122 407.008 448.062 406.864 448.062 406.696C448.062 406.528 448.122 406.388 448.242 406.276C448.362 406.156 448.51 406.096 448.686 406.096C448.862 406.096 449.01 406.152 449.13 406.264C449.25 406.376 449.31 406.516 449.31 406.684C449.31 406.86 449.25 407.008 449.13 407.128C449.018 407.248 448.87 407.308 448.686 407.308ZM454.693 408.64C455.205 408.64 455.653 408.74 456.037 408.94C456.429 409.132 456.733 409.428 456.949 409.828C457.173 410.228 457.285 410.732 457.285 411.34V415H456.433V411.424C456.433 410.76 456.265 410.26 455.929 409.924C455.601 409.58 455.137 409.408 454.537 409.408C454.089 409.408 453.697 409.5 453.361 409.684C453.033 409.86 452.777 410.12 452.593 410.464C452.417 410.8 452.329 411.208 452.329 411.688V415H451.477V408.7H452.293V410.428L452.161 410.104C452.361 409.648 452.681 409.292 453.121 409.036C453.561 408.772 454.085 408.64 454.693 408.64ZM460.258 413.368L460.282 412.276L464.206 408.7H465.25L462.478 411.352L461.998 411.76L460.258 413.368ZM459.586 415V406.096H460.438V415H459.586ZM464.47 415L461.842 411.724L462.394 411.064L465.514 415H464.47ZM471.926 415.06C471.334 415.06 470.878 414.9 470.558 414.58C470.238 414.26 470.078 413.808 470.078 413.224V407.308H470.93V413.176C470.93 413.544 471.022 413.828 471.206 414.028C471.398 414.228 471.67 414.328 472.022 414.328C472.398 414.328 472.71 414.22 472.958 414.004L473.258 414.616C473.09 414.768 472.886 414.88 472.646 414.952C472.414 415.024 472.174 415.06 471.926 415.06ZM468.95 409.408V408.7H472.85V409.408H468.95ZM477.154 415.06C476.546 415.06 475.998 414.924 475.51 414.652C475.03 414.372 474.65 413.992 474.37 413.512C474.09 413.024 473.95 412.468 473.95 411.844C473.95 411.212 474.09 410.656 474.37 410.176C474.65 409.696 475.03 409.32 475.51 409.048C475.99 408.776 476.538 408.64 477.154 408.64C477.778 408.64 478.33 408.776 478.81 409.048C479.298 409.32 479.678 409.696 479.95 410.176C480.23 410.656 480.37 411.212 480.37 411.844C480.37 412.468 480.23 413.024 479.95 413.512C479.678 413.992 479.298 414.372 478.81 414.652C478.322 414.924 477.77 415.06 477.154 415.06ZM477.154 414.304C477.61 414.304 478.014 414.204 478.366 414.004C478.718 413.796 478.994 413.508 479.194 413.14C479.402 412.764 479.506 412.332 479.506 411.844C479.506 411.348 479.402 410.916 479.194 410.548C478.994 410.18 478.718 409.896 478.366 409.696C478.014 409.488 477.614 409.384 477.166 409.384C476.718 409.384 476.318 409.488 475.966 409.696C475.614 409.896 475.334 410.18 475.126 410.548C474.918 410.916 474.814 411.348 474.814 411.844C474.814 412.332 474.918 412.764 475.126 413.14C475.334 413.508 475.614 413.796 475.966 414.004C476.318 414.204 476.714 414.304 477.154 414.304ZM486.943 415.06C486.423 415.06 485.931 414.988 485.467 414.844C485.003 414.692 484.639 414.504 484.375 414.28L484.759 413.608C485.015 413.8 485.343 413.968 485.743 414.112C486.143 414.248 486.563 414.316 487.003 414.316C487.603 414.316 488.035 414.224 488.299 414.04C488.563 413.848 488.695 413.596 488.695 413.284C488.695 413.052 488.619 412.872 488.467 412.744C488.323 412.608 488.131 412.508 487.891 412.444C487.651 412.372 487.383 412.312 487.087 412.264C486.791 412.216 486.495 412.16 486.199 412.096C485.911 412.032 485.647 411.94 485.407 411.82C485.167 411.692 484.971 411.52 484.819 411.304C484.675 411.088 484.603 410.8 484.603 410.44C484.603 410.096 484.699 409.788 484.891 409.516C485.083 409.244 485.363 409.032 485.731 408.88C486.107 408.72 486.563 408.64 487.099 408.64C487.507 408.64 487.915 408.696 488.323 408.808C488.731 408.912 489.067 409.052 489.331 409.228L488.959 409.912C488.679 409.72 488.379 409.584 488.059 409.504C487.739 409.416 487.419 409.372 487.099 409.372C486.531 409.372 486.111 409.472 485.839 409.672C485.575 409.864 485.443 410.112 485.443 410.416C485.443 410.656 485.515 410.844 485.659 410.98C485.811 411.116 486.007 411.224 486.247 411.304C486.495 411.376 486.763 411.436 487.051 411.484C487.347 411.532 487.639 411.592 487.927 411.664C488.223 411.728 488.491 411.82 488.731 411.94C488.979 412.052 489.175 412.216 489.319 412.432C489.471 412.64 489.547 412.916 489.547 413.26C489.547 413.628 489.443 413.948 489.235 414.22C489.035 414.484 488.739 414.692 488.347 414.844C487.963 414.988 487.495 415.06 486.943 415.06ZM494.326 408.64C494.838 408.64 495.286 408.74 495.67 408.94C496.062 409.132 496.366 409.428 496.582 409.828C496.806 410.228 496.918 410.732 496.918 411.34V415H496.066V411.424C496.066 410.76 495.898 410.26 495.562 409.924C495.234 409.58 494.77 409.408 494.17 409.408C493.722 409.408 493.33 409.5 492.994 409.684C492.666 409.86 492.41 410.12 492.226 410.464C492.05 410.8 491.962 411.208 491.962 411.688V415H491.11V406.096H491.962V410.428L491.794 410.104C491.994 409.648 492.314 409.292 492.754 409.036C493.194 408.772 493.718 408.64 494.326 408.64ZM501.787 415.06C501.179 415.06 500.631 414.924 500.143 414.652C499.663 414.372 499.283 413.992 499.003 413.512C498.723 413.024 498.583 412.468 498.583 411.844C498.583 411.212 498.723 410.656 499.003 410.176C499.283 409.696 499.663 409.32 500.143 409.048C500.623 408.776 501.171 408.64 501.787 408.64C502.411 408.64 502.963 408.776 503.443 409.048C503.931 409.32 504.311 409.696 504.583 410.176C504.863 410.656 505.003 411.212 505.003 411.844C505.003 412.468 504.863 413.024 504.583 413.512C504.311 413.992 503.931 414.372 503.443 414.652C502.955 414.924 502.403 415.06 501.787 415.06ZM501.787 414.304C502.243 414.304 502.647 414.204 502.999 414.004C503.351 413.796 503.627 413.508 503.827 413.14C504.035 412.764 504.139 412.332 504.139 411.844C504.139 411.348 504.035 410.916 503.827 410.548C503.627 410.18 503.351 409.896 502.999 409.696C502.647 409.488 502.247 409.384 501.799 409.384C501.351 409.384 500.951 409.488 500.599 409.696C500.247 409.896 499.967 410.18 499.759 410.548C499.551 410.916 499.447 411.348 499.447 411.844C499.447 412.332 499.551 412.764 499.759 413.14C499.967 413.508 500.247 413.796 500.599 414.004C500.951 414.204 501.347 414.304 501.787 414.304ZM506.743 415V408.7H507.559V410.416L507.475 410.116C507.651 409.636 507.947 409.272 508.363 409.024C508.779 408.768 509.295 408.64 509.911 408.64V409.468C509.879 409.468 509.847 409.468 509.815 409.468C509.783 409.46 509.751 409.456 509.719 409.456C509.055 409.456 508.535 409.66 508.159 410.068C507.783 410.468 507.595 411.04 507.595 411.784V415H506.743ZM513.727 415.06C513.135 415.06 512.679 414.9 512.359 414.58C512.039 414.26 511.879 413.808 511.879 413.224V407.308H512.731V413.176C512.731 413.544 512.823 413.828 513.007 414.028C513.199 414.228 513.471 414.328 513.823 414.328C514.199 414.328 514.511 414.22 514.759 414.004L515.059 414.616C514.891 414.768 514.687 414.88 514.447 414.952C514.215 415.024 513.975 415.06 513.727 415.06ZM510.751 409.408V408.7H514.651V409.408H510.751ZM519.003 415.06C518.379 415.06 517.819 414.924 517.323 414.652C516.835 414.372 516.451 413.992 516.171 413.512C515.891 413.024 515.751 412.468 515.751 411.844C515.751 411.212 515.891 410.656 516.171 410.176C516.451 409.696 516.835 409.32 517.323 409.048C517.819 408.776 518.379 408.64 519.003 408.64C519.539 408.64 520.023 408.744 520.455 408.952C520.887 409.16 521.227 409.472 521.475 409.888L520.839 410.32C520.623 410 520.355 409.764 520.035 409.612C519.715 409.46 519.367 409.384 518.991 409.384C518.543 409.384 518.139 409.488 517.779 409.696C517.419 409.896 517.135 410.18 516.927 410.548C516.719 410.916 516.615 411.348 516.615 411.844C516.615 412.34 516.719 412.772 516.927 413.14C517.135 413.508 517.419 413.796 517.779 414.004C518.139 414.204 518.543 414.304 518.991 414.304C519.367 414.304 519.715 414.228 520.035 414.076C520.355 413.924 520.623 413.692 520.839 413.38L521.475 413.812C521.227 414.22 520.887 414.532 520.455 414.748C520.023 414.956 519.539 415.06 519.003 415.06ZM525.753 415.06C525.217 415.06 524.749 414.96 524.349 414.76C523.949 414.56 523.637 414.26 523.413 413.86C523.197 413.46 523.089 412.96 523.089 412.36V408.7H523.941V412.264C523.941 412.936 524.105 413.444 524.433 413.788C524.769 414.124 525.237 414.292 525.837 414.292C526.277 414.292 526.657 414.204 526.977 414.028C527.305 413.844 527.553 413.58 527.721 413.236C527.897 412.892 527.985 412.48 527.985 412V408.7H528.837V415H528.021V413.272L528.153 413.584C527.953 414.048 527.641 414.412 527.217 414.676C526.801 414.932 526.313 415.06 525.753 415.06ZM533.203 415.06C532.611 415.06 532.155 414.9 531.835 414.58C531.515 414.26 531.355 413.808 531.355 413.224V407.308H532.207V413.176C532.207 413.544 532.299 413.828 532.483 414.028C532.675 414.228 532.947 414.328 533.299 414.328C533.675 414.328 533.987 414.22 534.235 414.004L534.535 414.616C534.367 414.768 534.163 414.88 533.923 414.952C533.691 415.024 533.451 415.06 533.203 415.06ZM530.227 409.408V408.7H534.127V409.408H530.227Z" fill="#4A24AC"/>
<g clip-path="url(#clip0_6_76)" filter="url(#filter1_d_6_76)">
<path d="M440 504C440 491.297 450.297 481 463 481H817C829.703 481 840 491.297 840 504C840 516.703 829.703 527 817 527H463C450.297 527 440 516.703 440 504Z" fill="#4A24AC"/>
<g clip-path="url(#clip1_6_76)">
<path d="M608.826 509.612C608.079 509.612 607.365 509.5 606.684 509.276C606.003 509.043 605.466 508.744 605.074 508.38L605.592 507.288C605.965 507.615 606.441 507.885 607.02 508.1C607.599 508.315 608.201 508.422 608.826 508.422C609.395 508.422 609.857 508.357 610.212 508.226C610.567 508.095 610.828 507.918 610.996 507.694C611.164 507.461 611.248 507.199 611.248 506.91C611.248 506.574 611.136 506.303 610.912 506.098C610.697 505.893 610.413 505.729 610.058 505.608C609.713 505.477 609.33 505.365 608.91 505.272C608.49 505.179 608.065 505.071 607.636 504.95C607.216 504.819 606.829 504.656 606.474 504.46C606.129 504.264 605.849 504.003 605.634 503.676C605.419 503.34 605.312 502.911 605.312 502.388C605.312 501.884 605.443 501.422 605.704 501.002C605.975 500.573 606.385 500.232 606.936 499.98C607.496 499.719 608.205 499.588 609.064 499.588C609.633 499.588 610.198 499.663 610.758 499.812C611.318 499.961 611.803 500.176 612.214 500.456L611.752 501.576C611.332 501.296 610.889 501.095 610.422 500.974C609.955 500.843 609.503 500.778 609.064 500.778C608.513 500.778 608.061 500.848 607.706 500.988C607.351 501.128 607.09 501.315 606.922 501.548C606.763 501.781 606.684 502.043 606.684 502.332C606.684 502.677 606.791 502.953 607.006 503.158C607.23 503.363 607.515 503.527 607.86 503.648C608.215 503.769 608.602 503.881 609.022 503.984C609.442 504.077 609.862 504.185 610.282 504.306C610.711 504.427 611.099 504.586 611.444 504.782C611.799 504.978 612.083 505.239 612.298 505.566C612.513 505.893 612.62 506.313 612.62 506.826C612.62 507.321 612.485 507.783 612.214 508.212C611.943 508.632 611.523 508.973 610.954 509.234C610.394 509.486 609.685 509.612 608.826 509.612ZM618.431 502.01C619.038 502.01 619.57 502.127 620.027 502.36C620.494 502.593 620.858 502.948 621.119 503.424C621.381 503.9 621.511 504.502 621.511 505.23V509.5H620.167V505.384C620.167 504.665 619.99 504.124 619.635 503.76C619.29 503.396 618.8 503.214 618.165 503.214C617.689 503.214 617.274 503.307 616.919 503.494C616.565 503.681 616.289 503.956 616.093 504.32C615.907 504.684 615.813 505.137 615.813 505.678V509.5H614.469V499.112H615.813V504.082L615.547 503.55C615.79 503.065 616.163 502.687 616.667 502.416C617.171 502.145 617.759 502.01 618.431 502.01ZM627.177 509.584C626.43 509.584 625.767 509.421 625.189 509.094C624.61 508.767 624.153 508.319 623.817 507.75C623.481 507.171 623.313 506.518 623.313 505.79C623.313 505.053 623.481 504.399 623.817 503.83C624.153 503.261 624.61 502.817 625.189 502.5C625.767 502.173 626.43 502.01 627.177 502.01C627.914 502.01 628.572 502.173 629.151 502.5C629.739 502.817 630.196 503.261 630.523 503.83C630.859 504.39 631.027 505.043 631.027 505.79C631.027 506.527 630.859 507.181 630.523 507.75C630.196 508.319 629.739 508.767 629.151 509.094C628.572 509.421 627.914 509.584 627.177 509.584ZM627.177 508.408C627.653 508.408 628.077 508.301 628.451 508.086C628.833 507.871 629.132 507.568 629.347 507.176C629.561 506.775 629.669 506.313 629.669 505.79C629.669 505.258 629.561 504.801 629.347 504.418C629.132 504.026 628.833 503.723 628.451 503.508C628.077 503.293 627.653 503.186 627.177 503.186C626.701 503.186 626.276 503.293 625.903 503.508C625.529 503.723 625.231 504.026 625.007 504.418C624.783 504.801 624.671 505.258 624.671 505.79C624.671 506.313 624.783 506.775 625.007 507.176C625.231 507.568 625.529 507.871 625.903 508.086C626.276 508.301 626.701 508.408 627.177 508.408ZM632.885 509.5V502.08H634.173V504.096L634.047 503.592C634.253 503.079 634.598 502.687 635.083 502.416C635.569 502.145 636.166 502.01 636.875 502.01V503.312C636.819 503.303 636.763 503.298 636.707 503.298C636.661 503.298 636.614 503.298 636.567 503.298C635.849 503.298 635.279 503.513 634.859 503.942C634.439 504.371 634.229 504.992 634.229 505.804V509.5H632.885ZM641.381 509.584C640.634 509.584 640.055 509.383 639.645 508.982C639.234 508.581 639.029 508.007 639.029 507.26V500.456H640.373V507.204C640.373 507.605 640.471 507.913 640.667 508.128C640.872 508.343 641.161 508.45 641.535 508.45C641.955 508.45 642.305 508.333 642.585 508.1L643.005 509.066C642.799 509.243 642.552 509.374 642.263 509.458C641.983 509.542 641.689 509.584 641.381 509.584ZM637.769 503.186V502.08H642.501V503.186H637.769ZM647.687 509.584C646.894 509.584 646.194 509.421 645.587 509.094C644.99 508.767 644.523 508.319 644.187 507.75C643.861 507.181 643.697 506.527 643.697 505.79C643.697 505.053 643.856 504.399 644.173 503.83C644.5 503.261 644.943 502.817 645.503 502.5C646.073 502.173 646.712 502.01 647.421 502.01C648.14 502.01 648.775 502.169 649.325 502.486C649.876 502.803 650.305 503.251 650.613 503.83C650.931 504.399 651.089 505.067 651.089 505.832C651.089 505.888 651.085 505.953 651.075 506.028C651.075 506.103 651.071 506.173 651.061 506.238H644.747V505.272H650.361L649.815 505.608C649.825 505.132 649.727 504.707 649.521 504.334C649.316 503.961 649.031 503.671 648.667 503.466C648.313 503.251 647.897 503.144 647.421 503.144C646.955 503.144 646.539 503.251 646.175 503.466C645.811 503.671 645.527 503.965 645.321 504.348C645.116 504.721 645.013 505.151 645.013 505.636V505.86C645.013 506.355 645.125 506.798 645.349 507.19C645.583 507.573 645.905 507.871 646.315 508.086C646.726 508.301 647.197 508.408 647.729 508.408C648.168 508.408 648.565 508.333 648.919 508.184C649.283 508.035 649.601 507.811 649.871 507.512L650.613 508.38C650.277 508.772 649.857 509.071 649.353 509.276C648.859 509.481 648.303 509.584 647.687 509.584ZM656.918 502.01C657.524 502.01 658.056 502.127 658.514 502.36C658.98 502.593 659.344 502.948 659.606 503.424C659.867 503.9 659.998 504.502 659.998 505.23V509.5H658.654V505.384C658.654 504.665 658.476 504.124 658.122 503.76C657.776 503.396 657.286 503.214 656.652 503.214C656.176 503.214 655.76 503.307 655.406 503.494C655.051 503.681 654.776 503.956 654.58 504.32C654.393 504.684 654.3 505.137 654.3 505.678V509.5H652.956V502.08H654.244V504.082L654.034 503.55C654.276 503.065 654.65 502.687 655.154 502.416C655.658 502.145 656.246 502.01 656.918 502.01ZM666.245 509.5V502.08H667.589V509.5H666.245ZM666.917 500.652C666.655 500.652 666.436 500.568 666.259 500.4C666.091 500.232 666.007 500.027 666.007 499.784C666.007 499.532 666.091 499.322 666.259 499.154C666.436 498.986 666.655 498.902 666.917 498.902C667.178 498.902 667.393 498.986 667.561 499.154C667.738 499.313 667.827 499.513 667.827 499.756C667.827 500.008 667.743 500.223 667.575 500.4C667.407 500.568 667.187 500.652 666.917 500.652ZM672.703 509.584C671.956 509.584 671.378 509.383 670.967 508.982C670.556 508.581 670.351 508.007 670.351 507.26V500.456H671.695V507.204C671.695 507.605 671.793 507.913 671.989 508.128C672.194 508.343 672.484 508.45 672.857 508.45C673.277 508.45 673.627 508.333 673.907 508.1L674.327 509.066C674.122 509.243 673.874 509.374 673.585 509.458C673.305 509.542 673.011 509.584 672.703 509.584ZM669.091 503.186V502.08H673.823V503.186H669.091Z" fill="white"/>
</g>
</g>
<rect x="440" y="551" width="400" height="56" rx="8" fill="#FAFAFA"/>
<path d="M461.985 576.31C462.625 576.31 463.195 576.44 463.695 576.7C464.205 576.95 464.605 577.34 464.895 577.87C465.185 578.39 465.33 579.06 465.33 579.88V584.5H462.99V580.24C462.99 579.59 462.845 579.11 462.555 578.8C462.275 578.49 461.875 578.335 461.355 578.335C460.985 578.335 460.65 578.415 460.35 578.575C460.06 578.725 459.83 578.96 459.66 579.28C459.5 579.6 459.42 580.01 459.42 580.51V584.5H457.08V573.37H459.42V578.665L458.895 577.99C459.185 577.45 459.6 577.035 460.14 576.745C460.68 576.455 461.295 576.31 461.985 576.31ZM470.751 584.62C469.801 584.62 469.061 584.38 468.531 583.9C468.001 583.41 467.736 582.685 467.736 581.725V574.645H470.076V581.695C470.076 582.035 470.166 582.3 470.346 582.49C470.526 582.67 470.771 582.76 471.081 582.76C471.451 582.76 471.766 582.66 472.026 582.46L472.656 584.11C472.416 584.28 472.126 584.41 471.786 584.5C471.456 584.58 471.111 584.62 470.751 584.62ZM466.491 578.41V576.61H472.086V578.41H466.491ZM477.094 584.62C476.144 584.62 475.404 584.38 474.874 583.9C474.344 583.41 474.079 582.685 474.079 581.725V574.645H476.419V581.695C476.419 582.035 476.509 582.3 476.689 582.49C476.869 582.67 477.114 582.76 477.424 582.76C477.794 582.76 478.109 582.66 478.369 582.46L478.999 584.11C478.759 584.28 478.469 584.41 478.129 584.5C477.799 584.58 477.454 584.62 477.094 584.62ZM472.834 578.41V576.61H478.429V578.41H472.834ZM485.082 584.62C484.402 584.62 483.807 584.47 483.297 584.17C482.787 583.87 482.387 583.415 482.097 582.805C481.817 582.185 481.677 581.405 481.677 580.465C481.677 579.515 481.812 578.735 482.082 578.125C482.352 577.515 482.742 577.06 483.252 576.76C483.762 576.46 484.372 576.31 485.082 576.31C485.842 576.31 486.522 576.485 487.122 576.835C487.732 577.175 488.212 577.655 488.562 578.275C488.922 578.895 489.102 579.625 489.102 580.465C489.102 581.315 488.922 582.05 488.562 582.67C488.212 583.29 487.732 583.77 487.122 584.11C486.522 584.45 485.842 584.62 485.082 584.62ZM480.312 587.41V576.43H482.547V578.08L482.502 580.48L482.652 582.865V587.41H480.312ZM484.677 582.7C485.067 582.7 485.412 582.61 485.712 582.43C486.022 582.25 486.267 581.995 486.447 581.665C486.637 581.325 486.732 580.925 486.732 580.465C486.732 579.995 486.637 579.595 486.447 579.265C486.267 578.935 486.022 578.68 485.712 578.5C485.412 578.32 485.067 578.23 484.677 578.23C484.287 578.23 483.937 578.32 483.627 578.5C483.317 578.68 483.072 578.935 482.892 579.265C482.712 579.595 482.622 579.995 482.622 580.465C482.622 580.925 482.712 581.325 482.892 581.665C483.072 581.995 483.317 582.25 483.627 582.43C483.937 582.61 484.287 582.7 484.677 582.7ZM493.384 584.62C492.694 584.62 492.029 584.54 491.389 584.38C490.759 584.21 490.259 584 489.889 583.75L490.669 582.07C491.039 582.3 491.474 582.49 491.974 582.64C492.484 582.78 492.984 582.85 493.474 582.85C494.014 582.85 494.394 582.785 494.614 582.655C494.844 582.525 494.959 582.345 494.959 582.115C494.959 581.925 494.869 581.785 494.689 581.695C494.519 581.595 494.289 581.52 493.999 581.47C493.709 581.42 493.389 581.37 493.039 581.32C492.699 581.27 492.354 581.205 492.004 581.125C491.654 581.035 491.334 580.905 491.044 580.735C490.754 580.565 490.519 580.335 490.339 580.045C490.169 579.755 490.084 579.38 490.084 578.92C490.084 578.41 490.229 577.96 490.519 577.57C490.819 577.18 491.249 576.875 491.809 576.655C492.369 576.425 493.039 576.31 493.819 576.31C494.369 576.31 494.929 576.37 495.499 576.49C496.069 576.61 496.544 576.785 496.924 577.015L496.144 578.68C495.754 578.45 495.359 578.295 494.959 578.215C494.569 578.125 494.189 578.08 493.819 578.08C493.299 578.08 492.919 578.15 492.679 578.29C492.439 578.43 492.319 578.61 492.319 578.83C492.319 579.03 492.404 579.18 492.574 579.28C492.754 579.38 492.989 579.46 493.279 579.52C493.569 579.58 493.884 579.635 494.224 579.685C494.574 579.725 494.924 579.79 495.274 579.88C495.624 579.97 495.939 580.1 496.219 580.27C496.509 580.43 496.744 580.655 496.924 580.945C497.104 581.225 497.194 581.595 497.194 582.055C497.194 582.555 497.044 583 496.744 583.39C496.444 583.77 496.009 584.07 495.439 584.29C494.879 584.51 494.194 584.62 493.384 584.62ZM499.523 579.235C499.123 579.235 498.778 579.1 498.488 578.83C498.208 578.55 498.068 578.195 498.068 577.765C498.068 577.335 498.208 576.99 498.488 576.73C498.778 576.46 499.123 576.325 499.523 576.325C499.933 576.325 500.278 576.46 500.558 576.73C500.838 576.99 500.978 577.335 500.978 577.765C500.978 578.195 500.838 578.55 500.558 578.83C500.278 579.1 499.933 579.235 499.523 579.235ZM499.523 584.62C499.123 584.62 498.778 584.485 498.488 584.215C498.208 583.935 498.068 583.58 498.068 583.15C498.068 582.72 498.208 582.375 498.488 582.115C498.778 581.845 499.123 581.71 499.523 581.71C499.933 581.71 500.278 581.845 500.558 582.115C500.838 582.375 500.978 582.72 500.978 583.15C500.978 583.58 500.838 583.935 500.558 584.215C500.278 584.485 499.933 584.62 499.523 584.62ZM501.794 586L506.744 571.87H508.829L503.879 586H501.794ZM506.569 586L511.519 571.87H513.604L508.654 586H506.569ZM516.966 584.62C516.096 584.62 515.321 584.445 514.641 584.095C513.961 583.735 513.426 583.24 513.036 582.61C512.656 581.98 512.466 581.265 512.466 580.465C512.466 579.655 512.656 578.94 513.036 578.32C513.426 577.69 513.961 577.2 514.641 576.85C515.321 576.49 516.096 576.31 516.966 576.31C517.816 576.31 518.556 576.49 519.186 576.85C519.816 577.2 520.281 577.705 520.581 578.365L518.766 579.34C518.556 578.96 518.291 578.68 517.971 578.5C517.661 578.32 517.321 578.23 516.951 578.23C516.551 578.23 516.191 578.32 515.871 578.5C515.551 578.68 515.296 578.935 515.106 579.265C514.926 579.595 514.836 579.995 514.836 580.465C514.836 580.935 514.926 581.335 515.106 581.665C515.296 581.995 515.551 582.25 515.871 582.43C516.191 582.61 516.551 582.7 516.951 582.7C517.321 582.7 517.661 582.615 517.971 582.445C518.291 582.265 518.556 581.98 518.766 581.59L520.581 582.58C520.281 583.23 519.816 583.735 519.186 584.095C518.556 584.445 517.816 584.62 516.966 584.62ZM525.831 584.62C524.911 584.62 524.101 584.44 523.401 584.08C522.711 583.72 522.176 583.23 521.796 582.61C521.416 581.98 521.226 581.265 521.226 580.465C521.226 579.655 521.411 578.94 521.781 578.32C522.161 577.69 522.676 577.2 523.326 576.85C523.976 576.49 524.711 576.31 525.531 576.31C526.321 576.31 527.031 576.48 527.661 576.82C528.301 577.15 528.806 577.63 529.176 578.26C529.546 578.88 529.731 579.625 529.731 580.495C529.731 580.585 529.726 580.69 529.716 580.81C529.706 580.92 529.696 581.025 529.686 581.125H523.131V579.76H528.456L527.556 580.165C527.556 579.745 527.471 579.38 527.301 579.07C527.131 578.76 526.896 578.52 526.596 578.35C526.296 578.17 525.946 578.08 525.546 578.08C525.146 578.08 524.791 578.17 524.481 578.35C524.181 578.52 523.946 578.765 523.776 579.085C523.606 579.395 523.521 579.765 523.521 580.195V580.555C523.521 580.995 523.616 581.385 523.806 581.725C524.006 582.055 524.281 582.31 524.631 582.49C524.991 582.66 525.411 582.745 525.891 582.745C526.321 582.745 526.696 582.68 527.016 582.55C527.346 582.42 527.646 582.225 527.916 581.965L529.161 583.315C528.791 583.735 528.326 584.06 527.766 584.29C527.206 584.51 526.561 584.62 525.831 584.62ZM536.194 576.31C536.834 576.31 537.404 576.44 537.904 576.7C538.414 576.95 538.814 577.34 539.104 577.87C539.394 578.39 539.539 579.06 539.539 579.88V584.5H537.199V580.24C537.199 579.59 537.054 579.11 536.764 578.8C536.484 578.49 536.084 578.335 535.564 578.335C535.194 578.335 534.859 578.415 534.559 578.575C534.269 578.725 534.039 578.96 533.869 579.28C533.709 579.6 533.629 580.01 533.629 580.51V584.5H531.289V576.43H533.524V578.665L533.104 577.99C533.394 577.45 533.809 577.035 534.349 576.745C534.889 576.455 535.504 576.31 536.194 576.31ZM544.96 584.62C544.01 584.62 543.27 584.38 542.74 583.9C542.21 583.41 541.945 582.685 541.945 581.725V574.645H544.285V581.695C544.285 582.035 544.375 582.3 544.555 582.49C544.735 582.67 544.98 582.76 545.29 582.76C545.66 582.76 545.975 582.66 546.235 582.46L546.865 584.11C546.625 584.28 546.335 584.41 545.995 584.5C545.665 584.58 545.32 584.62 544.96 584.62ZM540.7 578.41V576.61H546.295V578.41H540.7ZM551.935 584.62C551.015 584.62 550.205 584.44 549.505 584.08C548.815 583.72 548.28 583.23 547.9 582.61C547.52 581.98 547.33 581.265 547.33 580.465C547.33 579.655 547.515 578.94 547.885 578.32C548.265 577.69 548.78 577.2 549.43 576.85C550.08 576.49 550.815 576.31 551.635 576.31C552.425 576.31 553.135 576.48 553.765 576.82C554.405 577.15 554.91 577.63 555.28 578.26C555.65 578.88 555.835 579.625 555.835 580.495C555.835 580.585 555.83 580.69 555.82 580.81C555.81 580.92 555.8 581.025 555.79 581.125H549.235V579.76H554.56L553.66 580.165C553.66 579.745 553.575 579.38 553.405 579.07C553.235 578.76 553 578.52 552.7 578.35C552.4 578.17 552.05 578.08 551.65 578.08C551.25 578.08 550.895 578.17 550.585 578.35C550.285 578.52 550.05 578.765 549.88 579.085C549.71 579.395 549.625 579.765 549.625 580.195V580.555C549.625 580.995 549.72 581.385 549.91 581.725C550.11 582.055 550.385 582.31 550.735 582.49C551.095 582.66 551.515 582.745 551.995 582.745C552.425 582.745 552.8 582.68 553.12 582.55C553.45 582.42 553.75 582.225 554.02 581.965L555.265 583.315C554.895 583.735 554.43 584.06 553.87 584.29C553.31 584.51 552.665 584.62 551.935 584.62ZM557.393 584.5V576.43H559.628V578.71L559.313 578.05C559.553 577.48 559.938 577.05 560.468 576.76C560.998 576.46 561.643 576.31 562.403 576.31V578.47C562.303 578.46 562.213 578.455 562.133 578.455C562.053 578.445 561.968 578.44 561.878 578.44C561.238 578.44 560.718 578.625 560.318 578.995C559.928 579.355 559.733 579.92 559.733 580.69V584.5H557.393ZM564.591 584.62C564.191 584.62 563.846 584.485 563.556 584.215C563.276 583.935 563.136 583.58 563.136 583.15C563.136 582.72 563.276 582.375 563.556 582.115C563.846 581.845 564.191 581.71 564.591 581.71C565.001 581.71 565.346 581.845 565.626 582.115C565.906 582.375 566.046 582.72 566.046 583.15C566.046 583.58 565.906 583.935 565.626 584.215C565.346 584.485 565.001 584.62 564.591 584.62ZM572.728 584.5V582.925L572.578 582.58V579.76C572.578 579.26 572.423 578.87 572.113 578.59C571.813 578.31 571.348 578.17 570.718 578.17C570.288 578.17 569.863 578.24 569.443 578.38C569.033 578.51 568.683 578.69 568.393 578.92L567.553 577.285C567.993 576.975 568.523 576.735 569.143 576.565C569.763 576.395 570.393 576.31 571.033 576.31C572.263 576.31 573.218 576.6 573.898 577.18C574.578 577.76 574.918 578.665 574.918 579.895V584.5H572.728ZM570.268 584.62C569.638 584.62 569.098 584.515 568.648 584.305C568.198 584.085 567.853 583.79 567.613 583.42C567.373 583.05 567.253 582.635 567.253 582.175C567.253 581.695 567.368 581.275 567.598 580.915C567.838 580.555 568.213 580.275 568.723 580.075C569.233 579.865 569.898 579.76 570.718 579.76H572.863V581.125H570.973C570.423 581.125 570.043 581.215 569.833 581.395C569.633 581.575 569.533 581.8 569.533 582.07C569.533 582.37 569.648 582.61 569.878 582.79C570.118 582.96 570.443 583.045 570.853 583.045C571.243 583.045 571.593 582.955 571.903 582.775C572.213 582.585 572.438 582.31 572.578 581.95L572.938 583.03C572.768 583.55 572.458 583.945 572.008 584.215C571.558 584.485 570.978 584.62 570.268 584.62ZM577.036 584.5V576.43H579.376V584.5H577.036ZM578.206 575.305C577.776 575.305 577.426 575.18 577.156 574.93C576.886 574.68 576.751 574.37 576.751 574C576.751 573.63 576.886 573.32 577.156 573.07C577.426 572.82 577.776 572.695 578.206 572.695C578.636 572.695 578.986 572.815 579.256 573.055C579.526 573.285 579.661 573.585 579.661 573.955C579.661 574.345 579.526 574.67 579.256 574.93C578.996 575.18 578.646 575.305 578.206 575.305ZM579.973 586L584.923 571.87H587.008L582.058 586H579.973ZM591.24 584.62C590.56 584.62 589.965 584.47 589.455 584.17C588.945 583.87 588.545 583.415 588.255 582.805C587.975 582.185 587.835 581.405 587.835 580.465C587.835 579.515 587.97 578.735 588.24 578.125C588.51 577.515 588.9 577.06 589.41 576.76C589.92 576.46 590.53 576.31 591.24 576.31C592 576.31 592.68 576.485 593.28 576.835C593.89 577.175 594.37 577.655 594.72 578.275C595.08 578.895 595.26 579.625 595.26 580.465C595.26 581.315 595.08 582.05 594.72 582.67C594.37 583.29 593.89 583.77 593.28 584.11C592.68 584.45 592 584.62 591.24 584.62ZM586.47 587.41V576.43H588.705V578.08L588.66 580.48L588.81 582.865V587.41H586.47ZM590.835 582.7C591.225 582.7 591.57 582.61 591.87 582.43C592.18 582.25 592.425 581.995 592.605 581.665C592.795 581.325 592.89 580.925 592.89 580.465C592.89 579.995 592.795 579.595 592.605 579.265C592.425 578.935 592.18 578.68 591.87 578.5C591.57 578.32 591.225 578.23 590.835 578.23C590.445 578.23 590.095 578.32 589.785 578.5C589.475 578.68 589.23 578.935 589.05 579.265C588.87 579.595 588.78 579.995 588.78 580.465C588.78 580.925 588.87 581.325 589.05 581.665C589.23 581.995 589.475 582.25 589.785 582.43C590.095 582.61 590.445 582.7 590.835 582.7ZM596.826 584.5V573.37H599.166V584.5H596.826ZM601.038 581.215V579.34H605.283V581.215H601.038ZM609.839 584.62C609.149 584.62 608.484 584.54 607.844 584.38C607.214 584.21 606.714 584 606.344 583.75L607.124 582.07C607.494 582.3 607.929 582.49 608.429 582.64C608.939 582.78 609.439 582.85 609.929 582.85C610.469 582.85 610.849 582.785 611.069 582.655C611.299 582.525 611.414 582.345 611.414 582.115C611.414 581.925 611.324 581.785 611.144 581.695C610.974 581.595 610.744 581.52 610.454 581.47C610.164 581.42 609.844 581.37 609.494 581.32C609.154 581.27 608.809 581.205 608.459 581.125C608.109 581.035 607.789 580.905 607.499 580.735C607.209 580.565 606.974 580.335 606.794 580.045C606.624 579.755 606.539 579.38 606.539 578.92C606.539 578.41 606.684 577.96 606.974 577.57C607.274 577.18 607.704 576.875 608.264 576.655C608.824 576.425 609.494 576.31 610.274 576.31C610.824 576.31 611.384 576.37 611.954 576.49C612.524 576.61 612.999 576.785 613.379 577.015L612.599 578.68C612.209 578.45 611.814 578.295 611.414 578.215C611.024 578.125 610.644 578.08 610.274 578.08C609.754 578.08 609.374 578.15 609.134 578.29C608.894 578.43 608.774 578.61 608.774 578.83C608.774 579.03 608.859 579.18 609.029 579.28C609.209 579.38 609.444 579.46 609.734 579.52C610.024 579.58 610.339 579.635 610.679 579.685C611.029 579.725 611.379 579.79 611.729 579.88C612.079 579.97 612.394 580.1 612.674 580.27C612.964 580.43 613.199 580.655 613.379 580.945C613.559 581.225 613.649 581.595 613.649 582.055C613.649 582.555 613.499 583 613.199 583.39C612.899 583.77 612.464 584.07 611.894 584.29C611.334 584.51 610.649 584.62 609.839 584.62ZM618.888 587.53C618.128 587.53 617.393 587.435 616.683 587.245C615.983 587.065 615.398 586.79 614.928 586.42L615.858 584.74C616.198 585.02 616.628 585.24 617.148 585.4C617.678 585.57 618.198 585.655 618.708 585.655C619.538 585.655 620.138 585.47 620.508 585.1C620.888 584.73 621.078 584.18 621.078 583.45V582.235L621.228 580.21L621.198 578.17V576.43H623.418V583.15C623.418 584.65 623.028 585.755 622.248 586.465C621.468 587.175 620.348 587.53 618.888 587.53ZM618.528 584.11C617.778 584.11 617.098 583.95 616.488 583.63C615.888 583.3 615.403 582.845 615.033 582.265C614.673 581.675 614.493 580.99 614.493 580.21C614.493 579.42 614.673 578.735 615.033 578.155C615.403 577.565 615.888 577.11 616.488 576.79C617.098 576.47 617.778 576.31 618.528 576.31C619.208 576.31 619.808 576.45 620.328 576.73C620.848 577 621.253 577.425 621.543 578.005C621.833 578.575 621.978 579.31 621.978 580.21C621.978 581.1 621.833 581.835 621.543 582.415C621.253 582.985 620.848 583.41 620.328 583.69C619.808 583.97 619.208 584.11 618.528 584.11ZM618.993 582.19C619.403 582.19 619.768 582.11 620.088 581.95C620.408 581.78 620.658 581.545 620.838 581.245C621.018 580.945 621.108 580.6 621.108 580.21C621.108 579.81 621.018 579.465 620.838 579.175C620.658 578.875 620.408 578.645 620.088 578.485C619.768 578.315 619.403 578.23 618.993 578.23C618.583 578.23 618.218 578.315 617.898 578.485C617.578 578.645 617.323 578.875 617.133 579.175C616.953 579.465 616.863 579.81 616.863 580.21C616.863 580.6 616.953 580.945 617.133 581.245C617.323 581.545 617.578 581.78 617.898 581.95C618.218 582.11 618.583 582.19 618.993 582.19ZM624.021 586L628.971 571.87H631.056L626.106 586H624.021Z" fill="#4A24AC"/>
<mask id="mask0_6_76" style="mask-type:alpha" maskUnits="userSpaceOnUse" x="800" y="567" width="24" height="24">
<rect x="800" y="567" width="24" height="24" fill="#D9D9D9"/>
</mask>
<g mask="url(#mask0_6_76)">
<path d="M818.692 585.5H808.308C807.803 585.5 807.375 585.325 807.025 584.975C806.675 584.625 806.5 584.197 806.5 583.692V570.308C806.5 569.803 806.675 569.375 807.025 569.025C807.375 568.675 807.803 568.5 808.308 568.5H815.25L820.5 573.75V583.692C820.5 584.197 820.325 584.625 819.975 584.975C819.625 585.325 819.197 585.5 818.692 585.5ZM814.5 574.5V570H808.308C808.231 570 808.16 570.032 808.096 570.096C808.032 570.16 808 570.231 808 570.308V583.692C808 583.769 808.032 583.84 808.096 583.904C808.16 583.968 808.231 584 808.308 584H818.692C818.769 584 818.84 583.968 818.904 583.904C818.968 583.84 819 583.769 819 583.692V574.5H814.5ZM804.308 589.5C803.803 589.5 803.375 589.325 803.025 588.975C802.675 588.625 802.5 588.197 802.5 587.692V574.5H804V587.692C804 587.769 804.032 587.84 804.096 587.904C804.16 587.968 804.231 588 804.308 588H814.5V589.5L804.308 589.5Z" fill="#676C80"/>
</g>
</g>
<defs>
<filter id="filter0_d_6_76" x="320" y="120" width="640" height="622" filterUnits="userSpaceOnUse" color-interpolation-filters="sRGB">
<feFlood flood-opacity="0" result="BackgroundImageFix"/>
<feColorMatrix in="SourceAlpha" type="matrix" values="0 0 0 0 0 0 0 0 0 0 0 0 0 0 0 0 0 0 127 0" result="hardAlpha"/>
<feOffset dy="15"/>
<feGaussianBlur stdDeviation="40"/>
<feColorMatrix type="matrix" values="0 0 0 0 0.133333 0 0 0 0 0.0109375 0 0 0 0 0.525 0 0 0 0.06 0"/>
<feBlend mode="normal" in2="BackgroundImageFix" result="effect1_dropShadow_6_76"/>
<feBlend mode="normal" in="SourceGraphic" in2="effect1_dropShadow_6_76" result="shape"/>
</filter>
<filter id="filter1_d_6_76" x="410" y="451" width="460" height="106" filterUnits="userSpaceOnUse" color-interpolation-filters="sRGB">
<feFlood flood-opacity="0" result="BackgroundImageFix"/>
<feColorMatrix in="SourceAlpha" type="matrix" values="0 0 0 0 0 0 0 0 0 0 0 0 0 0 0 0 0 0 127 0" result="hardAlpha"/>
<feOffset/>
<feGaussianBlur stdDeviation="15"/>
<feColorMatrix type="matrix" values="0 0 0 0 0.211765 0 0 0 0 0.235294 0 0 0 0 0.337255 0 0 0 0.07 0"/>
<feBlend mode="normal" in2="BackgroundImageFix" result="effect1_dropShadow_6_76"/>
<feBlend mode="normal" in="SourceGraphic" in2="effect1_dropShadow_6_76" result="shape"/>
</filter>
<clipPath id="clip0_6_76">
<rect width="400" height="46" fill="white" transform="translate(440 481)"/>
</clipPath>
<clipPath id="clip1_6_76">
<rect width="71" height="17" fill="white" transform="translate(604.5 495.5)"/>
</clipPath>
</defs>
</svg>
