<svg width="240" height="32" viewBox="0 0 240 32" fill="none" xmlns="http://www.w3.org/2000/svg">
<path d="M236.308 0.713043H236.134C235.156 0.713058 234.218 1.09929 233.526 1.78678C232.835 2.47427 232.446 3.4067 232.446 4.37895C232.446 5.3512 232.835 6.28364 233.526 6.97113C234.218 7.65862 235.156 8.04485 236.134 8.04487H236.308C237.286 8.04485 238.224 7.65862 238.916 6.97113C239.608 6.28364 239.996 5.3512 239.996 4.37895C239.996 3.4067 239.608 2.47427 238.916 1.78678C238.224 1.09929 237.286 0.713058 236.308 0.713043ZM233.076 30.9751H239.366V12.6221H233.076V30.9751ZM169.877 30.9751H188.34V24.7229H169.877V30.9751ZM223.316 23.6878V0.713043H217.002V3.68664C214.658 1.99036 211.879 0.989494 208.987 0.800245C206.094 0.610995 203.207 1.24112 200.66 2.61747C198.113 3.99382 196.011 6.05994 194.598 8.576C193.186 11.0921 192.519 13.9549 192.678 16.8321C192.836 19.7093 193.812 22.4829 195.492 24.831C197.172 27.1791 199.488 29.0053 202.17 30.0976C204.853 31.1899 207.792 31.5036 210.647 31.0022C213.501 30.5009 216.154 29.205 218.298 27.265C219.034 28.4035 220.046 29.3398 221.241 29.9882C222.436 30.6365 223.776 30.976 225.137 30.9755H227.953V25.3052H224.943C224.729 25.3053 224.518 25.2635 224.32 25.1822C224.123 25.1009 223.944 24.9818 223.792 24.8316C223.641 24.6814 223.521 24.5031 223.44 24.3068C223.358 24.1105 223.316 23.9002 223.316 23.6878ZM207.991 24.958C206.209 24.958 204.466 24.4327 202.984 23.4485C201.503 22.4643 200.348 21.0654 199.665 19.4287C198.983 17.792 198.805 15.991 199.153 14.2534C199.5 12.5159 200.359 10.9199 201.619 9.66715C202.879 8.41444 204.485 7.56133 206.233 7.21569C207.98 6.87005 209.792 7.04741 211.439 7.72534C213.085 8.40327 214.493 9.55133 215.483 11.0243C216.473 12.4973 217.002 14.2291 217.002 16.0007C216.999 18.3754 216.049 20.6522 214.359 22.3314C212.67 24.0106 210.38 24.9552 207.991 24.9579V24.958ZM43.8699 0.713043C35.6099 0.713043 28.89 7.57113 28.89 16.0007C28.89 24.4303 35.6099 31.2884 43.8699 31.2884C47.7251 31.2884 51.6149 30.1531 54.2765 27.7067L50.3834 23.1605C48.5351 24.6766 46.7194 25.2971 43.8701 25.2971C39.2646 25.2971 36.323 22.6566 35.3118 18.9963L58.5597 18.9969C58.753 18.0098 58.8503 17.0064 58.8504 16.0007C58.8502 7.57113 52.13 0.713043 43.8699 0.713043ZM35.2607 13.3352C35.7211 11.4204 36.8255 9.71926 38.3911 8.51339C39.9567 7.30753 41.8896 6.66926 43.8699 6.70423C45.8588 6.64046 47.8079 7.26763 49.3819 8.47785C50.9559 9.68806 52.0564 11.4057 52.4942 13.3352H35.2607ZM22.4991 22.229H22.497C21.2279 23.5401 19.5882 24.4372 17.7948 24.8015C16.0015 25.1658 14.1392 24.9803 12.4543 24.2693C10.7694 23.5583 9.34145 22.3555 8.35942 20.8201C7.3774 19.2847 6.8876 17.489 6.95487 15.6708C7.01937 13.9234 7.59552 12.2327 8.61266 10.8061C9.62979 9.37956 11.0437 8.27908 12.6809 7.63969C14.3181 7.00029 16.1075 6.84979 17.8295 7.20663C19.5515 7.56348 21.1313 8.41215 22.3752 9.64856H22.376L26.8405 5.21071C24.6847 3.06763 21.9358 1.61118 18.9441 1.02701C15.9524 0.442844 12.8534 0.757416 10.0422 1.93063C7.23108 3.10385 4.83503 5.08258 3.15951 7.61458C1.48399 10.1466 0.604902 13.1172 0.634297 16.1477C0.663692 19.1782 1.60024 22.1314 3.32456 24.6308C5.04888 27.1302 7.48287 29.0627 10.3163 30.1818C13.1497 31.3009 16.2541 31.556 19.234 30.9146C22.2138 30.2732 24.934 28.7644 27.0478 26.5803V26.5795L22.4991 22.229ZM171.204 0.71321H167.149C164.882 0.733547 162.682 1.47741 160.873 2.83508V0.721323H154.559V30.9753H160.873L160.873 12.822C160.877 11.1084 161.564 9.46603 162.784 8.25544C164.004 7.04485 165.658 6.36492 167.382 6.3649H171.204L171.204 0.71321ZM104.098 21.2337V12.7891H110.759V7.12805H104.098V0.713043H97.7836V20.462C97.7836 21.8426 98.0572 23.2097 98.5887 24.4853C99.1202 25.7608 99.8993 26.9198 100.881 27.896C101.864 28.8723 103.03 29.6467 104.313 30.175C105.596 30.7034 106.971 30.9753 108.36 30.9753H114.149V25.2773H108.166C107.632 25.2773 107.103 25.1727 106.609 24.9695C106.116 24.7663 105.667 24.4684 105.289 24.093C104.912 23.7175 104.612 23.2717 104.408 22.7811C104.203 22.2905 104.098 21.7647 104.098 21.2337ZM77.5307 0.723394C74.9342 0.738015 72.4145 1.60105 70.3601 3.1795V0.713043H64.0444L64.0458 30.9751H70.3601V13.5225C70.3574 12.5848 70.541 11.6558 70.9001 10.7887C71.2593 9.92159 71.7871 9.13348 72.4532 8.46949C73.1193 7.8055 73.9107 7.27869 74.7819 6.91923C75.6532 6.55978 76.5873 6.37475 77.5307 6.37475C78.474 6.37475 79.4081 6.55978 80.2794 6.91923C81.1507 7.27869 81.942 7.8055 82.6081 8.46949C83.2742 9.13348 83.802 9.92159 84.1612 10.7887C84.5203 11.6558 84.7039 12.5848 84.7012 13.5225V30.9753H91.0155L91.015 14.0837C90.9993 10.5376 89.5722 7.14185 87.0455 4.63844C84.5189 2.13504 81.0981 0.7275 77.5307 0.723394ZM132.862 0.713043C124.602 0.713043 117.882 7.57113 117.882 16.0007C117.882 24.4303 124.602 31.2884 132.862 31.2884C136.717 31.2884 140.607 30.1531 143.268 27.7067L139.375 23.1605C137.527 24.6766 135.711 25.2971 132.862 25.2971C128.256 25.2971 125.315 22.6566 124.304 18.9963L147.551 18.9969C147.745 18.0098 147.842 17.0064 147.842 16.0007C147.842 7.57113 141.122 0.713043 132.862 0.713043ZM124.252 13.3352C124.713 11.4204 125.817 9.71926 127.383 8.51339C128.949 7.30753 130.881 6.66926 132.862 6.70423C134.851 6.64046 136.8 7.26763 138.374 8.47785C139.948 9.68806 141.048 11.4057 141.486 13.3352H124.252Z" fill="#4A24AC"/>
</svg>
